<svg version="1" xmlns="http://www.w3.org/2000/svg" width="346.667" height="346.667" viewBox="0 0 260.000000 260.000000"><path d="M116.9 37.7c-1.3 2.1-5.4 8-9.2 13.1-5.9 8.1-7.6 9.7-12.3 11.8-3 1.3-5.4 2.6-5.4 2.8 0 .2 1.9 1.5 4.3 2.9 2.3 1.4 5.7 4.4 7.5 6.6 1.9 2.3 3.9 4 4.5 3.8.7-.2 1.4-2.1 1.7-4.3.6-4.6 2.1-5.2 8.5-3.3l4.3 1.3.6 8.5c.4 4.7.9 10.7 1.2 13.3l.6 4.8-7.4.1c-4 0-8.5.3-9.9.5-2.4.4-3.2-.5-9.1-9.8C93.2 84.1 89 77 87.4 74c-3.3-6.3-8.4-13.7-11.1-16.1-1-.9-4.2-4.2-7.2-7.3C64 45.3 53.7 39 50 39c-.9 0-2.2-.6-2.8-1.3-.8-.7-4.1-1.2-9-1.2-13.7.1-22.5 6.2-29.8 20.6-4 8.1-6.8 19.7-5.8 24.3 1.1 5 4.1 10.1 6.7 11.3 2.2 1 2.5.8 3.6-2.2 1.9-5.2 6.9-11.4 10.7-13.3 3.4-1.6 3.7-1.6 4.9.1.7.9 1.5 3.9 1.9 6.5.3 2.7 1.7 9.2 3.1 14.6 1.4 5.4 2.5 10.2 2.5 10.7s-1.5.7-3.3.4c-7.4-1.2-17 6-19.6 14.4-3.4 11.5 2.2 25.5 12.5 31.6 5.5 3.2 7.8 2.7 6.9-1.4-.7-3.1.2-8.1 1.5-8.1.5 0 1.1 2.4 1.5 5.2.3 2.9 1 7.3 1.5 9.8.5 2.5 1.1 6.9 1.4 9.8l.5 5.2h-3c-8 0-20.1 10-25.2 20.8-2.8 6-4.1 14.8-2.9 19.4.5 2 1.7 1.9 8.7-1.2 17.5-7.8 32.1-7.6 51.2.7 4.5 2 8.8 3.3 9.5 3.1.7-.3 2.2-3 3.2-5.9 1.1-3 3.1-7.2 4.4-9.4 2.9-4.5 11.1-12.5 13-12.5.6 0 1.2-.5 1.2-1 0-1.3-11.2-15-12.2-15-.4 0-.8 1.5-.8 3.4v3.5l-6.4-2.9c-5.9-2.7-20.9-5.6-22.8-4.4-1 .6-.9 1.1-1.2-11.5l-.2-10.4 5.1-2.3c6.3-3 13.4-3.1 19.5-.3 7.4 3.3 10.7 7.1 18 20.4 12.2 22.4 22.3 34.8 33.3 40.9 5.8 3.2 19 7.2 20.6 6.2.4-.3.2-3.8-.6-7.8-.7-4-1.7-16.5-2.3-27.8-.5-11.3-1.2-22.5-1.5-25-.3-2.5-.7-9-1-14.5-.3-5.5-.8-11.6-1.1-13.5-.2-1.9-1.1-14.3-1.8-27.5-.8-13.2-1.5-24.6-1.7-25.3-.3-.8 1.3-2 3.8-3 2.3-1 5.5-3 7.2-4.6 3.1-3 6.1-10.1 6.1-14.6 0-1.4.6-5 1.4-8 .8-3 1.1-5.9.7-6.3-.5-.4-2.7 0-5 .9-6.2 2.5-15.8 1.5-24.2-2.5-3.6-1.7-7.9-3.4-9.6-3.7-2.7-.5-3.3-.2-5.4 3.3zm12.4 4.5c6 2.6 8.8 3.2 16.4 3.6l9.3.4-.6 4.2c-1.5 10.5-4.7 16-12.1 20.3l-4.6 2.6.7 15.1c.3 8.3.9 17.6 1.1 20.6 2 22 3.7 46.5 5 70 .8 15.1 1.8 29 2.1 30.9.7 3.4.6 3.4-2.4 2.8-9.3-1.9-24.8-17-34.3-33.5-3.2-5.7-5.9-10.6-5.9-10.9 0-1.3-8.3-12.4-11.3-15-6.4-5.6-12.3-7.8-21.2-7.8-6.7 0-8.9.5-13.7 2.8-4.2 2-5.9 3.4-6.4 5.3-.7 2.5.3 22.5 1.1 23.2.2.3 3.5.6 7.2.8 8.4.5 18.6 3.5 23.5 6.9 4.2 2.8 5.8 3.1 5.8 1 0-1 .8-.7 2.7 1.1l2.7 2.5-2.5 1.7c-6.3 4.4-10.2 9-13.8 16.3l-3.8 7.8-5.4-2.8c-6.8-3.6-17.8-6.9-24.9-7.5-10.3-.9-25.7 3.2-31.4 8.2-1.8 1.7-1.9 1.6-1.2-3.6.8-6.5 2-9.2 6.9-16.4 6.5-9.5 17.6-15.5 21.4-11.7 1.9 1.9 4.4.3 3.8-2.3-.3-1.3-1.4-9.5-2.4-18.2-1.5-12.4-2.3-16.2-3.6-17.2-3.3-2.4-9.5 2.1-9.5 6.9v3l-2.4-2.2c-1.3-1.2-3.6-5-5.1-8.4-4.6-10.1-3.4-20.7 3.1-26.8 2.3-2.1 3.4-2.4 10.5-2.2 7 .1 7.9-.1 7.5-1.5-.3-1-1-4.4-1.6-7.7-.6-3.3-1.8-8.8-2.6-12.2-.8-3.4-1.4-6.5-1.3-7 1.1-6.4-3.6-12.3-9.9-12.3-5 0-9.8 3.2-13.8 9.2l-3.2 4.7-.6-4.8c-.9-6.5.8-14.2 4.8-22.7 6.9-14.5 13.8-19.1 27.5-18.1 11.9.8 18.8 4.4 28.1 14.9 7.4 8.4 11.3 13.9 16.8 23.9 6.5 12.1 13.1 21.7 15.2 22.4 1.9.6 25.8-1 26.6-1.8.5-.5-1.4-27.3-2.1-29.4-.2-.7-2.5-1.8-5-2.4-2.5-.6-4.8-1.5-5.1-2-1-1.7-6.3-.9-9.1 1.5l-2.7 2.4-3.3-2.6-3.4-2.5 4.6-2.6c4.2-2.4 11.8-11.4 17.7-20.9 1.1-1.7 2.2-3.2 2.5-3.2.2 0 3.7 1.4 7.6 3.2z"/><path d="M48 77.7c0 1 .9 8.3 2 16.3 1 8 2.4 21.6 3.1 30.2 1.3 17.2 1.3 17.2 7.1 13.9 4.6-2.7 11.1-3.5 16.9-2 6.8 1.8 7.9.4 4.1-5.2-6.4-9.4-20.9-35.8-23.6-42.9-2.9-7.7-5.9-12-8.3-12-.7 0-1.3.8-1.3 1.7zM72.4 125c2.5 3.9 4.6 7.2 4.6 7.4 0 .1-2.1.1-4.8-.2-3.2-.2-6.5.3-10 1.6l-5.2 2v-9.7c0-8.6-1-20.1-2.6-30.1-.4-2.6 1.3-.1 6.5 9.2 3.8 7 9 15.9 11.5 19.8zM112.5 113.7c-4.5.7-4.9 1.7-1.7 5.1 3.4 3.7 10.3 18.8 12.8 28.2 1.9 7.2 3 9 5 9 2.4 0 1.5-17.6-1.7-36.3l-1.2-6.7-5.1.1c-2.8.1-6.4.4-8.1.6zm9.8 4.5c.3 1.3.8 5.2 1.2 8.8l.6 6.5-2.4-5c-1.3-2.8-3.6-6.4-5-8.1-1.5-1.8-2.7-3.5-2.7-3.8 0-.3 1.8-.6 3.9-.6 3.2 0 4 .4 4.4 2.2zM175.4 43.4c-5.6 2.5-10.1 11.1-8.8 16.8.7 3.5 2.7 3.6 4.2.3 1.2-2.7 7-6.1 8.2-4.8.4.4 1.1 5.1 1.5 10.3l.6 9.5H177c-5.5.1-9 3.6-9.7 9.6-.4 3.5 0 5 1.7 7.1 2.7 3.5 4.8 3.6 5.6.3.3-1.3 1.2-2.9 2-3.6 1.2-1 1.4.3 1.4 8.5 0 8.8-.2 9.6-1.9 9.6-3.5 0-10.9 10.6-8.8 12.6.3.3 1.4.1 2.5-.5 3.5-1.9 7.7-1.2 12 1.8 2.2 1.6 4.3 3.5 4.7 4.1.4.7 2.1-.2 4.5-2.4 2.1-1.9 5.6-4 7.8-4.6 3.3-1.1 4.4-.9 7.8.8 2.1 1.1 5.7 3.8 7.8 6.1l3.9 4 4.8-4.3c2.6-2.3 6.5-4.8 8.7-5.4 5.3-1.6 13.1-1.5 16.2.3 1.4.8 2.9 1.4 3.3 1.5.5 0 .5-9.1.2-20.3-.8-22.7.1-31.9 4-40.6 1.4-2.9 2.5-5.5 2.5-5.7 0-.2-1.2-.4-2.6-.4-4 0-8.8-2.7-10.8-6-.9-1.7-2-3-2.5-3-.4 0-2.2 1.6-4.1 3.5-4 4.1-6 4.5-6 1.1 0-1.9-.7-2.5-3.6-3.1-4-.7-5.4.3-5.4 4.2 0 3.5-1.6 2.8-5-2.1-1.6-2.5-3.5-4.8-4.1-5.2-.6-.3-2.9 1.1-5.1 3.2-3.8 3.7-4 3.8-3.6 1.4.3-2.3 0-2.5-3.7-2.5h-4l.2 4.7c.2 3.5-.1 4.8-1.1 4.8-.8 0-1.6-1-1.9-2.3-.4-1.2-2.4-3.9-4.5-6-4.5-4.4-9.8-5.6-14.8-3.3zm12 2.7c1.5 1.1 3.6 3.9 4.7 6 2.3 4.6 3.9 5.5 6.9 3.9 1.8-.9 2-1.7 1.5-4.3-.4-1.8-.8-3.6-.9-4.1 0-.6.8-1.2 1.8-1.4 1.7-.4 1.8.1 1.3 3.7-.7 5.2.4 5.2 6.4.1l4.7-4 2.3 3.6c2.1 3.4 7.5 6.8 9.1 5.8.5-.3.8-2.1.8-4 0-2.7.4-3.4 2-3.4s2 .7 2 3c0 2.5.4 3 2.4 3 1.3 0 4-1.1 5.9-2.5l3.7-2.4 2.6 2.4c1.5 1.4 4.4 3 6.5 3.5l3.7 1-2.3 4.3c-3.6 6.4-4.9 19-4.1 39.8l.6 17.7-4.2-1.5c-7.1-2.4-18.9.5-24.9 6.3l-2.5 2.4-2.7-3c-6.9-7.7-16.5-8.9-23.8-3l-4 3.1-3-2.5c-3.3-2.8-8.6-4.2-12.5-3.2l-2.6.7 2.2-3c2.6-3.7 5.8-6.1 8.3-6.1 1.6 0 1.7-.9 1.5-10.8l-.3-10.7-2.7-.3c-2.2-.3-3.2.3-4.7 2.9-2 3.2-2.6 3-3.3-1.1-.4-2.3 1.2-7.3 2.9-9.3 1.1-1.2 3.1-1.7 6.5-1.7h4.8l-.3-10.1c-.2-9.3-.4-10.2-2.6-12.1-2.9-2.3-6.4-1.8-10 1.5l-2.3 2.2.7-2.5c1.7-5.4 2.4-6.8 5.5-9.3 3.9-3.3 8.7-3.5 12.4-.6z"/><path d="M233.3 57.4c-2.5 1.2-3.3 3.3-3.3 9.8 0 7 .6 7.8 5.5 7.8h4.3l-.2-7.2c-.1-5.7-.5-7.6-2.1-9.3-1.6-1.6-2.4-1.9-4.2-1.1zm3.7 9.4l.5 6.2h-2.7c-2.6 0-2.7-.3-2.4-3.3.3-1.7.5-4.7.5-6.5.1-2.6.5-3.3 1.9-3 1.3.2 1.8 1.7 2.2 6.6zM203.5 61.7c-.3 2.7-.8 6-1 7.5-.5 3.3 2.3 5.3 6.2 4.3 2.1-.5 2.4-1.1 2-3.2-.3-1.4-.1-3.8.3-5.4.7-2.4.4-3.1-2.5-5.3-1.9-1.5-3.6-2.6-3.9-2.6-.3 0-.7 2.1-1.1 4.7zm4.2-.5c.4.7.8 3.4.8 6 0 3.9-.3 4.8-1.7 4.8-1.5 0-1.8-1-1.8-6 0-5.7 1-7.4 2.7-4.8zM196.4 60.1c-2 1-2.2 2.4-3.4 24.4-.7 12.8-.9 23.8-.6 24.4 1.1 1.7 4.3 1.3 5.1-.7 1.8-4.6 3.4-49.3 1.8-49.1-.5 0-1.7.5-2.9 1zm1.2 18.1c-.8 21.7-1.6 29.7-2.9 30.5-1 .6-.9-2.3 1-35.5 1-17.8 2.6-13.6 1.9 5zM223.4 61.2c-2.5 1.1-3.1 6.1-4 31.3-.5 14.1-.4 15.1 1.5 17.4 3.2 3.6 5.1 2.1 5.1-4.1 0-2.9.3-14.4.7-25.6.3-11.6.2-20.2-.3-20.1-.5 0-1.9.5-3 1.1zm1.2 14c-1.3 27.3-1.8 33-2.8 32-1-1 .8-42.7 1.9-44.5 1.3-2.1 1.5.5.9 12.5zM202.5 82.4c-.9 7.2-.4 9 2.4 9.4 3.5.5 4.6-1.3 4.7-7.6.1-5.9-.6-7.2-4.3-7.2-1.9 0-2.2.7-2.8 5.4zm5.1 2c.1 4.1-.2 5.6-1.4 6.1-2.3.8-2.5.1-1.7-6 .9-7.3 3-7.3 3.1-.1zM229.5 80.2c-.6 2.5-.9 7.2-.7 10.4.2 1.7 1 2.3 4 2.6 2 .3 3.8.4 4 .3.2-.2.5-3.7.7-7.9l.5-7.6h-4c-3.3 0-4.1.4-4.5 2.2zm6 5.2c-.6 4.6-1.1 5.6-2.6 5.6-1.6 0-1.9-.7-1.9-4.3 0-4.6.7-6.1 3-6.9 2.2-.8 2.2-.5 1.5 5.6zM204.9 93.7c-2.3.4-2.6.9-3.6 8.1-1 7.8-.4 10.7 1.9 8.4.7-.7 2.1-1.2 3.3-1.2 1.8 0 2-.6 2-8 0-4.4-.2-7.9-.5-7.8-.3 0-1.7.3-3.1.5zm1.3 7.3c.1 3.3 0 6-.4 6-.3 0-1.3.2-2 .5-1.2.5-1.3-.5-.4-6 .5-3.6 1.3-6.5 1.7-6.5.4 0 .9 2.7 1.1 6zM229.2 97.2c-.7.7-1.2 4.3-1.2 9v7.9l3.8-.4 3.7-.4.3-8.7.3-8.6h-2.9c-1.5 0-3.3.5-4 1.2zm4.8 7.8c0 6.3-.2 7-2 7s-2-.7-2-7 .2-7 2-7 2 .7 2 7zM183.4 135.3c-5.5 2.7-12.2 9.8-15.5 16.5-1.2 2.4-2 4.5-1.7 4.7.2.2 3.2-1.1 6.8-2.8 5.7-2.8 7.3-3.2 14-3 4.1.1 9.8.7 12.5 1.3 2.8.6 9.1 1.8 14.1 2.7l9.1 1.7 6.7-3.3c7-3.4 13.6-8.9 13.6-11.3 0-1.2-1-1.3-6.2-.5-8.5 1.3-15.1.2-24.3-4-10.9-4.8-21.5-5.6-29.1-2zm24.1 4c8.2 3.8 17.7 6 23.9 5.5 6.7-.6 6.2.7-1.7 4.7-5.9 2.9-7.8 3-16.7 1-10.2-2.3-23.2-4.5-27-4.5-1.9 0-6.3 1.3-9.8 3l-6.3 3 2-2.8c5.8-8.2 13.6-12.1 24.1-12.1 4.8-.1 7.8.5 11.5 2.2z"/><path d="M188.2 157.7c-5.1 2.5-13.8 12.7-17.6 20.6-6.1 12.9-6.8 21.6-2.6 33 4.1 10.9 16 20.2 27.3 21.4 13.1 1.3 35.4-9.2 41.5-19.5 2.8-4.8 4.4-12.5 3.3-15.6-.6-1.6-1.3-.9-4.3 3.9l-3.5 5.8.5-25c.3-17.2.1-25.2-.6-25.7-.6-.3-2.2-.1-3.5.5-3 1.4-3.3 3.7-4.2 28.9-.9 24.9-.2 23.1-9 25.8-4.4 1.3-10 2.2-13.8 2.2-7.5 0-10.5-1.8-14-8.3-1.9-3.7-2.2-5.7-2.2-17.2 0-12.7.1-13.2 3.8-22.1 2-5 3.7-9.4 3.7-9.8 0-1-1.2-.7-4.8 1.1zm.8 3.5c-12.6 19-9.9 47.2 5.2 54.9 4 2.1 4.8 2.1 11.6 1 7.7-1.3 16.7-4.5 19.2-6.8 1.2-1.1 1.6-5.7 1.9-25.9.3-23.3.4-24.5 2.3-25.5 2-1.1 2-.9 1.4 7.8-.3 4.8-.7 16.4-.8 25.7-.3 18.9.1 20.1 5.2 14.6 4.1-4.3 3.9-1.6-.2 4.6-3.7 5.5-14.2 13.1-22.6 16.3-6.8 2.7-17.8 2.8-24.6.4-10.1-3.7-18.1-14.3-19.3-25.7-1.5-14.3 6.7-33.3 17.9-41.5 2.3-1.7 4.4-3.1 4.6-3.1.2 0-.6 1.5-1.8 3.2z"/><path d="M208 159.1c-2.5 1.1-6.6 3.4-9.2 5.1-4.2 2.6-4.8 3.5-4.8 6.3 0 3.9 1.4 5.2 3.6 3.4.8-.6 1.6-1 1.7-.8.4.5-1.7 24.4-2.8 33.1l-.8 5.8h3.2c8.3 0 15.6-8 18-20 1.2-5.7.9-31.9-.3-33.9-1-1.6-3.5-1.3-8.6 1zm6.2 15.6c-.3 17.3-1.4 22.6-6.1 29.1-2.6 3.4-8.5 7.2-9.6 6-.2-.2 0-2 .5-3.9.4-1.9 1.4-10.5 2.1-19.2 1-12.5 1-16 0-17-1-.9-1.5-.8-2.5.5-.7 1-1.6 1.8-2 1.8-1.9 0-.1-3.8 2.7-5.4 4.9-2.9 14.1-7.6 14.7-7.6.3 0 .4 7.1.2 15.7z"/></svg>