<svg width="700" height="600" xmlns="http://www.w3.org/2000/svg" preserveAspectRatio="xMidYMid meet">

 <g>
  <title>background</title>
  <rect fill="none" id="canvas_background" height="602" width="702" y="-1" x="-1"/>
 </g>
 <g>
  <title>Logo</title>
  <g id="svg_1" fill="#000000" transform="translate(0.000000,614.000000) scale(0.100000,-0.100000)">
   <path id="svg_2" d="m4148,5632c-25,-3 -27,-7 -30,-55l-3,-52l-65,-23c-36,-13 -101,-40 -145,-62l-80,-38l-1,-61c0,-63 4,-68 38,-50c20,11 20,9 14,-48c-4,-32 -9,-166 -11,-298c-5,-220 -10,-280 -30,-327c-19,-47 95,-39 156,11c19,16 45,49 57,75c25,50 33,127 50,493c5,111 12,177 20,185c6,6 13,10 15,7c2,-2 0,-42 -4,-89c-5,-47 -13,-186 -19,-310c-5,-124 -13,-283 -16,-354l-7,-128l-76,5c-42,3 -93,10 -113,16c-54,17 -142,102 -175,169c-24,50 -28,69 -28,147c0,75 4,97 23,133c20,37 22,49 13,74c-18,52 -13,161 10,225c35,93 63,134 149,211c44,41 80,80 80,88c0,10 -14,14 -58,14c-87,0 -167,-43 -267,-144c-127,-128 -170,-229 -182,-427c-7,-130 10,-215 70,-339c33,-67 57,-101 117,-159c111,-109 218,-152 381,-153c148,-1 283,58 406,176c95,90 143,157 180,253c25,63 27,79 27,223c1,144 -1,161 -27,233c-46,131 -137,258 -240,334l-59,43l-30,-30c-38,-38 -46,-38 -50,3c-3,28 -7,32 -33,33c-16,0 -42,-2 -57,-4zm72,-52c0,-22 5,-40 11,-40c15,0 51,20 76,43l22,20l49,-44c110,-100 174,-192 214,-308c20,-57 23,-86 23,-216c0,-179 -11,-219 -91,-341c-42,-64 -73,-97 -137,-146c-116,-90 -145,-106 -234,-129c-177,-48 -338,-9 -476,115c-88,79 -128,143 -162,261c-25,82 -26,100 -21,204c5,89 13,132 35,196c33,96 54,129 144,229c66,74 148,127 214,139c30,6 27,2 -46,-71c-60,-59 -87,-95 -117,-157c-35,-73 -39,-87 -39,-160c0,-52 6,-91 15,-110c15,-29 14,-33 -17,-93c-37,-71 -41,-116 -19,-199c23,-88 54,-139 119,-199c72,-67 106,-83 192,-91c79,-7 132,2 139,25c10,29 16,126 27,422c6,157 13,333 15,393c5,102 4,107 -14,107c-11,0 -31,-13 -45,-29c-26,-32 -27,-40 -43,-455c-6,-154 -9,-173 -33,-220c-27,-53 -82,-98 -136,-112c-25,-6 -27,-5 -21,12c12,31 37,276 31,304c-3,14 -1,102 4,194c11,182 6,215 -29,196c-26,-14 -25,-15 -25,32l0,43l148,59l147,59l0,54l0,53l40,0l40,0l0,-40z"/>
   <path id="svg_3" d="m4239,5442c0,-4 -6,-60 -13,-125c-12,-115 -11,-119 8,-133c32,-22 87,-17 129,12c21,14 37,29 35,33c-2,4 -32,53 -68,109c-58,90 -89,125 -91,104zm76,-129l57,-87l-24,-18c-25,-19 -93,-24 -103,-8c-6,9 4,200 11,200c1,0 28,-39 59,-87z"/>
   <path id="svg_4" d="m4355,5109c-34,-21 -67,-24 -97,-8c-30,16 -34,4 -41,-136c-4,-68 -8,-129 -9,-137c-2,-9 7,-12 31,-10c19,2 53,-2 76,-8c66,-18 79,-6 93,87c15,94 15,173 2,207c-11,30 -15,31 -55,5zm34,-174c-6,-60 -13,-112 -14,-114c-2,-2 -27,2 -55,9c-28,7 -60,10 -70,7c-19,-5 -20,-1 -14,96c9,153 4,141 56,142c25,0 56,8 69,17c23,15 24,15 31,-16c4,-17 3,-80 -3,-141z"/>
   <path id="svg_5" d="m4223,4748c-14,-17 -27,-228 -15,-228c5,0 27,13 49,29c47,34 90,103 99,158l6,40l-38,6c-59,10 -91,8 -101,-5zm90,-14c32,-7 33,-15 8,-70c-18,-40 -86,-124 -100,-124c-11,0 10,195 23,202c6,4 18,6 26,3c8,-2 27,-7 43,-11z"/>
   <path id="svg_6" d="m3116,5563c-50,-80 -109,-145 -144,-160c-34,-14 -36,-16 -17,-27c11,-6 36,-28 55,-48c19,-21 39,-38 43,-38c4,0 7,13 7,29c0,39 11,44 59,30l39,-11l4,-92c3,-50 5,-91 4,-92c-1,-1 -31,-4 -69,-7l-67,-6l-44,67c-24,37 -62,99 -84,137c-45,76 -115,154 -171,189c-43,27 -125,56 -159,56c-113,0 -211,-100 -243,-250c-9,-43 -8,-59 5,-95c10,-24 24,-46 33,-49c16,-7 33,9 33,31c0,6 16,28 34,48c39,41 67,43 77,5c12,-42 49,-197 49,-204c0,-3 -16,-6 -35,-6c-20,0 -49,-7 -64,-15c-35,-17 -71,-88 -71,-136c0,-50 45,-134 84,-159c49,-30 63,-27 58,14c-2,18 1,36 6,40c10,6 29,-87 34,-169c3,-38 2,-39 -34,-45c-20,-4 -45,-13 -55,-20c-82,-63 -123,-132 -123,-210c0,-54 5,-58 48,-36c15,7 58,21 96,31c60,16 77,17 138,7c38,-7 95,-23 128,-37c33,-14 64,-25 69,-25c5,0 22,27 37,61c18,39 44,75 75,103l48,43l-34,39c-19,22 -35,42 -35,47c0,4 -4,7 -10,7c-5,0 -10,-9 -10,-20c0,-11 -1,-20 -2,-20c-2,0 -27,9 -55,20c-29,11 -77,23 -108,26l-55,7l0,77l0,77l54,18c106,36 177,-11 266,-175c94,-174 190,-267 298,-290c30,-7 56,-9 59,-6c3,3 0,34 -6,69c-6,35 -11,91 -11,125c0,33 -9,188 -20,344c-11,156 -22,322 -25,370l-6,87l39,20c50,26 72,59 82,130c5,31 12,67 16,80c6,21 5,23 -12,16c-10,-5 -44,-11 -75,-13c-44,-3 -69,2 -117,22c-34,14 -68,26 -77,26c-8,0 -25,-17 -39,-37zm129,-24c41,-14 75,-20 106,-17l46,5l-8,-41c-5,-23 -8,-48 -9,-55c0,-8 -23,-37 -52,-63l-51,-49l2,-77c1,-42 9,-165 17,-272c8,-107 19,-280 24,-385c5,-104 12,-200 16,-212c5,-17 2,-23 -10,-23c-64,0 -189,122 -261,255c-85,156 -156,215 -260,215c-58,0 -129,-27 -137,-52c-2,-7 -2,-48 0,-90l4,-78l37,0c53,0 148,-27 183,-52c21,-15 32,-17 37,-9c5,8 13,5 26,-9c10,-11 14,-20 9,-20c-21,0 -89,-78 -111,-128l-25,-53l-31,20c-36,22 -121,47 -185,55c-56,7 -135,-10 -191,-40l-44,-24l7,42c17,106 141,230 196,196c10,-7 21,-10 24,-7c4,4 -3,70 -22,214c-5,37 -12,51 -25,53c-24,5 -57,-25 -57,-51c0,-49 -66,52 -71,108c-5,67 1,93 31,125c28,30 34,32 80,28c27,-3 51,-3 54,-1c2,2 -3,32 -11,66c-7,34 -18,88 -23,121c-10,66 -32,96 -69,96c-37,0 -86,-33 -102,-69c-22,-50 -32,-36 -27,37c6,85 55,191 105,229c44,34 112,40 189,18c50,-14 69,-26 124,-84c41,-43 88,-107 127,-177c35,-60 73,-121 85,-135c23,-26 25,-26 113,-20l90,6l-4,100c-2,55 -7,105 -11,110c-17,20 -97,37 -119,25c-12,-6 -21,-15 -21,-21c0,-5 -13,0 -30,13l-30,22l37,20c35,20 66,56 115,134c14,22 26,32 37,28c9,-3 43,-15 76,-27z"/>
   <path id="svg_7" d="m2645,5283c8,-51 26,-207 35,-311c4,-57 11,-106 13,-109c3,-2 16,2 29,10c33,21 91,29 123,17c43,-16 48,1 17,51c-53,84 -141,244 -158,289c-28,72 -68,109 -59,53zm165,-308c46,-69 46,-68 16,-63c-26,5 -72,-2 -107,-16c-15,-6 -17,4 -18,88c-1,52 -6,121 -11,153c-6,32 -10,60 -10,63c0,3 23,-38 51,-90c29,-52 64,-113 79,-135z"/>
   <path id="svg_8" d="m3086,5043l-28,-5l21,-22c27,-29 74,-127 95,-198c29,-99 40,-85 33,43c-3,63 -9,131 -13,152c-6,35 -8,37 -43,36c-20,-1 -49,-4 -65,-6zm88,-69c7,-65 2,-80 -14,-38c-6,16 -23,44 -36,61l-25,33l34,0c34,0 34,0 41,-56z"/>
   <path id="svg_9" d="m5910,3836c-43,-25 -152,-27 -219,-2c-84,31 -151,16 -215,-48c-42,-42 -66,-94 -66,-141l0,-33l34,34c32,32 38,34 78,28c24,-4 67,-15 97,-26c109,-37 197,-15 270,68c33,37 72,128 60,138c-2,2 -20,-6 -39,-18zm-235,-26c63,-22 167,-27 211,-10c15,6 28,9 30,7c6,-5 -71,-100 -97,-120c-43,-31 -87,-36 -159,-16c-96,25 -165,32 -189,19c-40,-21 -14,44 36,92c54,51 85,56 168,28z"/>
   <path id="svg_10" d="m2945,3809c-22,-22 -66,-54 -98,-70l-57,-29l15,-36c8,-20 15,-38 15,-40c0,-3 12,-1 26,2c17,4 29,2 35,-7c5,-8 8,-78 8,-155l0,-141l-92,5c-51,2 -93,5 -94,6c-1,1 -5,75 -8,164c-6,161 -6,162 20,199c31,47 32,67 0,98c-42,43 -121,24 -145,-35c-12,-28 -11,-36 5,-63c21,-36 23,-69 29,-544l3,-323l-91,0c-182,0 -349,-74 -418,-185c-30,-49 -25,-54 40,-39c115,27 214,13 334,-47c32,-16 60,-29 62,-29c3,0 21,21 41,48c55,72 133,150 166,164c37,16 36,24 -3,66l-33,33l1,140c1,77 3,141 5,143c2,2 43,6 90,8l87,4l4,-145c5,-161 0,-180 -52,-224c-16,-14 -30,-28 -30,-30c0,-3 12,-8 26,-11c42,-11 111,-82 135,-142c13,-30 25,-54 29,-54c3,0 14,16 24,34c26,50 50,69 144,116c45,23 82,46 82,50c0,4 -7,13 -16,21c-8,7 -22,25 -30,41c-12,22 -19,27 -38,22c-17,-4 -25,0 -30,13c-7,17 -21,291 -32,608l-5,150l40,18c30,14 43,28 60,67c12,27 21,53 21,59c0,6 -21,11 -50,11c-60,0 -116,26 -153,70c-14,16 -27,30 -29,30c-2,0 -22,-18 -43,-41zm-241,-21c22,-31 20,-45 -11,-74l-27,-25l2,-153c2,-84 6,-165 10,-180c8,-28 8,-29 97,-31c50,-2 95,-4 100,-5c32,-7 34,1 34,151c1,164 -3,179 -49,179c-27,0 -40,15 -40,44c0,8 21,21 47,31c25,10 63,33 83,51l37,34l19,-22c29,-32 93,-58 147,-58c26,0 47,-3 47,-6c0,-3 -11,-25 -25,-49c-18,-31 -38,-48 -66,-59c-36,-15 -40,-19 -35,-44c3,-15 8,-175 11,-357c8,-398 12,-422 75,-417c18,1 29,-6 41,-26l16,-29l-65,-28c-36,-16 -86,-48 -110,-72c-25,-23 -46,-42 -46,-40c-16,49 -91,137 -127,149c-10,3 -2,17 25,49c36,42 37,47 32,94c-3,28 -6,101 -6,163l0,114l-114,-4c-63,-1 -117,-6 -120,-9c-4,-3 -7,-76 -7,-162l0,-157l32,-28l32,-28l-44,-26c-45,-26 -121,-101 -153,-150l-17,-27l-51,26c-98,49 -216,66 -310,44c-21,-5 -38,-7 -38,-5c0,12 72,67 120,93c101,54 169,71 284,71l105,0l-4,228c-14,648 -14,644 -30,662c-37,41 -5,110 50,110c24,0 39,-7 49,-22z"/>
   <path id="svg_11" d="m6075,3812c-112,-40 -182,-106 -214,-206c-16,-46 -22,-98 -26,-211c-6,-185 -14,-337 -21,-433l-6,-73l-53,-24c-72,-32 -226,-171 -255,-230c-12,-25 -20,-48 -18,-50c2,-3 26,4 54,14c97,37 243,62 373,64c121,2 130,0 229,-34l103,-35l28,60c15,34 42,83 59,110c18,28 32,56 32,63c0,17 -109,66 -196,88c-42,11 -102,18 -154,17l-85,-1l3,102c1,56 5,112 7,124c11,50 102,64 163,26l24,-15l-23,-24c-25,-27 -26,-26 22,-42c44,-15 49,-15 49,1c0,13 77,130 130,197l33,42l-24,19c-31,24 -38,24 -47,-1c-7,-19 -9,-19 -47,7c-60,41 -153,44 -230,9l-57,-26l4,90c4,97 16,123 72,164c32,25 96,27 141,5c25,-12 30,-20 28,-46c-2,-27 1,-31 25,-35c15,-3 34,-8 43,-12c12,-5 19,-1 25,16c22,58 88,169 124,206l40,41l-25,17c-16,11 -50,18 -88,19c-34,1 -91,5 -127,9c-49,4 -77,2 -115,-12zm242,-16c40,-1 75,-5 79,-8c3,-4 -13,-30 -36,-59c-22,-29 -58,-85 -78,-126c-24,-50 -40,-72 -50,-68c-7,3 -18,5 -23,5c-5,0 -7,11 -3,24c8,32 -22,61 -77,76c-83,23 -186,-24 -208,-93c-11,-34 -16,-121 -13,-201l2,-50l28,27c63,61 179,80 242,39c73,-45 81,-48 95,-28c8,10 19,15 25,11c7,-4 4,-15 -10,-33c-15,-21 -128,-187 -136,-200c0,-1 -11,1 -24,6l-23,9l21,14c25,18 19,29 -28,58c-60,36 -163,22 -189,-27c-5,-10 -11,-76 -12,-147l-2,-129l90,3c50,1 119,-3 154,-9c78,-15 199,-58 199,-72c0,-5 -8,-22 -19,-36c-10,-15 -33,-55 -50,-89c-17,-35 -35,-63 -40,-63c-5,0 -29,8 -53,19c-157,67 -376,66 -600,-2c-62,-19 -58,-14 65,101c75,71 108,95 144,105l48,14l11,104c6,57 15,192 18,299c4,107 10,220 12,250c16,170 157,299 309,284c33,-3 92,-7 132,-8z"/>
   <path id="svg_12" d="m1156,3758l-57,-63l3,45c2,41 0,45 -21,48c-27,4 -80,-5 -98,-16c-10,-6 -9,-22 3,-72c12,-51 12,-65 2,-72c-24,-15 -34,-8 -52,32c-22,51 -99,126 -144,141c-58,19 -137,7 -180,-28c-78,-63 -125,-176 -104,-255c12,-47 33,-45 64,7c41,69 126,110 142,69c3,-8 10,-68 16,-132c6,-64 13,-132 16,-150c5,-31 4,-32 -21,-26c-61,15 -138,-24 -171,-88c-19,-36 -21,-116 -5,-155c15,-37 85,-80 98,-61c7,13 8,17 11,49c3,24 43,72 52,62c5,-4 12,-74 15,-154l8,-146l-33,-7c-45,-9 -104,-73 -125,-136c-9,-28 -14,-54 -11,-58c4,-3 28,2 54,11c83,30 132,17 221,-57c24,-20 47,-36 51,-36c5,0 30,23 57,51c59,63 108,89 168,89c60,0 112,-27 191,-101c35,-32 69,-59 75,-59c6,0 23,14 37,32c52,62 84,88 148,119c88,43 189,51 259,20c78,-34 77,-35 70,82c-4,56 -13,138 -21,182c-9,49 -15,164 -17,295c-2,226 8,299 53,390c10,19 21,45 24,58c7,20 4,22 -37,22c-82,0 -149,38 -183,103c-8,15 -20,27 -28,27c-7,0 -32,-23 -55,-50c-23,-28 -56,-57 -72,-65l-29,-16l0,45l0,44l-57,5c-71,6 -86,-7 -81,-70c2,-24 0,-43 -4,-43c-22,0 -43,19 -89,81c-30,41 -58,69 -69,69c-10,0 -43,-28 -74,-62zm-333,1c33,-22 59,-52 88,-100l40,-69l36,15c19,8 38,15 41,15c4,0 -2,52 -14,118c-6,31 -5,32 25,32l31,0l0,-60c0,-41 4,-60 12,-60c7,0 44,32 82,72l69,72l16,-24c28,-45 97,-109 124,-115c49,-13 60,-1 55,61l-5,55l36,-3c35,-3 36,-4 39,-52c3,-48 3,-48 33,-42c52,10 99,37 126,73l26,34l15,-23c32,-46 116,-87 180,-88l33,0l-21,-29c-34,-48 -52,-101 -65,-191c-16,-105 -10,-391 10,-545c7,-60 16,-138 20,-172l6,-62l-28,14c-119,59 -343,-1 -440,-119l-31,-38l-33,42c-22,27 -58,53 -106,77c-65,32 -78,35 -131,31c-72,-7 -112,-27 -166,-83l-42,-42l-33,28c-61,51 -147,70 -220,49c-19,-5 -36,-8 -39,-6c-2,3 12,30 32,60c36,56 85,96 119,96c9,0 17,6 17,13c3,63 -2,291 -6,302c-7,18 -39,28 -68,21c-27,-7 -57,-48 -66,-91l-6,-30l-18,27c-43,65 -25,172 36,224c27,22 39,25 87,22l56,-3l-3,135c-1,74 -7,150 -13,167c-14,43 -44,63 -93,63c-34,0 -46,-7 -83,-45c-46,-48 -49,-45 -32,34c31,146 162,213 272,140z"/>
   <path id="svg_13" d="m1565,3620c-10,-11 -25,-20 -32,-20c-12,0 -14,-21 -11,-119c1,-66 6,-122 10,-126c10,-11 118,-7 132,4c11,9 10,21 -1,64c-8,30 -12,74 -9,105c4,41 2,52 -10,52c-8,0 -23,13 -32,30c-20,35 -23,36 -47,10zm39,-45c16,-12 20,-28 21,-83c1,-37 5,-79 9,-93c7,-23 4,-27 -19,-33c-57,-14 -63,-4 -67,101c-2,70 1,100 10,110c17,16 22,16 46,-2z"/>
   <path id="svg_14" d="m1096,3557c-23,-185 -20,-202 39,-213c57,-10 65,1 69,102l3,90l-31,19c-80,50 -74,50 -80,2zm80,-113l2,-85l-32,3l-31,3l-3,89c-4,115 0,124 35,96c25,-20 27,-27 29,-106z"/>
   <path id="svg_15" d="m1403,3549l-33,-21l-2,-141c-1,-78 -1,-234 -1,-347l1,-205l35,-37c35,-38 67,-49 67,-25c0,6 0,127 0,267c0,327 -9,530 -24,530c-6,0 -26,-10 -43,-21zm34,-369c2,-363 1,-369 -18,-357c-21,13 -21,-4 -23,437c-1,205 2,258 13,273c8,9 17,17 20,17c4,0 7,-166 8,-370z"/>
   <path id="svg_16" d="m979,3542l-27,-16l-4,-355c-2,-196 -2,-366 0,-379c6,-30 48,-41 70,-18c15,15 17,55 18,371c0,195 -1,368 -4,384c-5,34 -15,37 -53,13zm31,-207c1,-107 1,-249 1,-315c0,-256 1,-240 -21,-240c-11,0 -20,3 -20,8c0,4 -1,168 -2,365c-1,366 -1,376 35,377c4,0 7,-88 7,-195z"/>
   <path id="svg_17" d="m1554,3293c-37,-5 -44,-26 -44,-127c0,-103 2,-106 76,-106c63,0 63,0 60,28c-2,15 -4,69 -5,120l-1,92l-27,-2c-16,0 -42,-3 -59,-5zm66,-113l0,-100l-40,3l-40,2l0,80c0,87 5,100 35,108c45,11 45,11 45,-93z"/>
   <path id="svg_18" d="m1096,3234c-3,-26 -6,-75 -6,-110c0,-60 2,-64 25,-70c34,-8 72,2 84,24c5,9 6,58 2,107l-6,90l-46,3l-46,3l-7,-47zm74,-23c0,-25 4,-63 9,-84c8,-31 6,-39 -9,-47c-10,-6 -28,-10 -39,-10c-16,0 -20,5 -17,23c3,12 5,56 5,98c1,76 1,76 26,71c22,-4 25,-9 25,-51z"/>
   <path id="svg_19" d="m1140,3021l-35,-6l-7,-90c-4,-49 -9,-103 -12,-120c-3,-16 -2,-37 4,-45c7,-12 12,-12 29,4c11,10 35,21 53,25c25,6 32,12 30,27c-2,10 -6,63 -9,117c-3,53 -8,96 -12,96c-3,-1 -22,-4 -41,-8zm25,-83c0,-35 3,-77 7,-94c6,-27 4,-31 -24,-42c-18,-6 -33,-10 -35,-8c-2,2 -1,49 3,105c6,94 8,101 28,101c19,0 21,-6 21,-62z"/>
   <path id="svg_20" d="m1571,3006c-32,-8 -46,-18 -53,-36c-11,-27 -2,-220 10,-231c4,-4 31,-5 61,-2l54,6l-6,130c-3,71 -9,133 -14,137c-4,4 -28,2 -52,-4zm39,-131c0,-107 -1,-115 -19,-115c-11,0 -26,-3 -35,-6c-14,-5 -16,8 -16,108c0,63 3,118 7,121c3,4 19,7 35,7l28,0l0,-115z"/>
   <path id="svg_21" d="m2145,3802c-73,-34 -121,-116 -113,-194l3,-30l35,31c63,56 94,57 225,7c49,-18 135,-21 157,-3c27,21 87,105 94,132c6,25 6,26 -37,18c-70,-13 -117,-7 -182,23c-80,35 -131,40 -182,16zm165,-43c65,-28 82,-31 142,-27c61,5 66,4 58,-12c-5,-9 -27,-33 -50,-53c-49,-45 -76,-47 -165,-11c-53,21 -76,25 -123,21c-31,-3 -68,-9 -82,-13l-24,-7l26,44c30,51 80,89 117,89c15,0 60,-14 101,-31z"/>
   <path id="svg_22" d="m4579,3776c-79,-21 -134,-61 -194,-140c-50,-67 -83,-131 -73,-141c2,-2 37,13 78,33c72,36 77,37 179,36c61,-1 138,-8 181,-18c176,-40 243,-49 295,-37c48,11 120,51 180,99c29,24 60,70 53,78c-3,2 -43,-1 -90,-7c-106,-13 -168,-3 -286,47c-147,61 -233,74 -323,50zm264,-70c134,-57 189,-69 289,-64c48,3 88,5 88,3c0,-3 -94,-62 -130,-81c-21,-11 -55,-17 -85,-17c-47,1 -80,7 -260,49c-38,9 -108,17 -155,18c-90,1 -130,-11 -214,-62l-38,-24l18,32c31,51 97,115 145,138c124,60 213,62 342,8z"/>
   <path id="svg_23" d="m3587,3765c-55,-19 -84,-50 -123,-132c-47,-99 -46,-127 4,-80c20,19 34,22 90,21c37,-1 86,-7 110,-13c24,-7 74,-12 112,-13c106,-1 211,57 255,142c21,41 10,54 -34,39c-45,-16 -140,-5 -230,26c-83,28 -128,31 -184,10zm181,-60c78,-27 187,-34 225,-14c22,12 22,12 4,-9c-71,-79 -166,-102 -323,-77c-103,16 -173,10 -189,-15c-3,-6 -11,-10 -16,-10c-26,0 67,125 105,140c41,17 122,10 194,-15z"/>
   <path id="svg_24" d="m4148,3713c-32,-5 -112,-82 -138,-133c-30,-59 -59,-165 -66,-245c-4,-42 -1,-172 6,-288c12,-192 11,-217 -4,-269c-20,-69 -54,-98 -116,-98c-37,0 -56,10 -143,72c-94,68 -104,72 -161,76c-51,3 -66,0 -96,-20c-53,-36 -80,-91 -80,-166c0,-78 15,-88 70,-43c51,41 78,40 197,-8c116,-47 188,-58 269,-41c85,18 132,43 193,103c69,67 90,110 103,210c9,70 8,105 -11,237c-11,86 -21,178 -21,205c0,95 45,320 70,350c6,8 10,24 8,37c-3,24 -25,30 -80,21zm42,-65c-23,-52 -58,-238 -63,-333c-3,-38 3,-117 11,-175c9,-58 16,-152 16,-210c1,-95 -2,-110 -27,-162c-53,-107 -174,-187 -298,-196c-70,-5 -125,9 -224,55c-59,27 -141,31 -187,7l-30,-16l7,44c14,85 65,148 119,148c33,0 76,-25 163,-96c62,-51 110,-68 174,-62c54,6 88,30 117,83c15,26 16,55 12,210c-2,99 -4,245 -4,325c0,134 2,151 28,220c16,41 39,90 53,108c33,44 100,92 129,92l23,0l-19,-42z"/>
   <path id="svg_25" d="m2519,3634c-8,-9 -42,-34 -76,-56c-51,-32 -67,-49 -89,-94c-24,-49 -26,-59 -17,-104c10,-49 9,-50 -11,-44c-106,34 -217,-62 -196,-171c5,-30 78,-95 106,-95c8,0 24,15 34,33c17,29 55,57 77,57c10,0 -8,-202 -23,-242c-7,-22 -23,-53 -34,-69c-12,-16 -19,-29 -15,-29c3,0 40,16 81,37c90,43 147,103 169,177c12,38 15,94 15,216c-2,245 0,363 6,383c7,22 -9,22 -27,1zm-5,-291c-2,-221 -4,-264 -20,-303c-22,-57 -66,-113 -108,-139c-38,-24 -53,-27 -38,-8c22,27 42,221 26,261c-7,18 -55,21 -85,5c-11,-5 -28,-23 -38,-39l-18,-30l-21,20c-41,38 -55,79 -43,120c18,59 82,103 131,89c66,-19 70,-16 70,64c0,89 23,132 95,181c28,19 50,34 50,35c0,1 -1,-115 -1,-256z"/>
   <path id="svg_26" d="m5723,3584c-69,-34 -133,-129 -133,-196c0,-10 -7,-18 -15,-18c-7,0 -37,-5 -65,-11c-133,-28 -182,-183 -85,-268c20,-17 41,-31 48,-31c7,0 19,17 28,39c16,38 46,56 69,41c19,-12 -12,-233 -43,-309c-14,-34 -23,-61 -20,-61c2,0 37,15 77,34c58,26 83,46 123,93c73,88 79,118 63,328c-13,177 -9,264 16,324c8,18 14,37 14,42c0,14 -42,10 -77,-7zm24,-61c-18,-53 -19,-76 -13,-273c5,-136 3,-227 -3,-249c-18,-60 -136,-191 -172,-191c-3,0 3,26 14,58c25,71 36,254 17,277c-20,24 -64,18 -94,-11c-14,-15 -26,-31 -26,-36c0,-18 -20,4 -40,42c-38,74 -19,154 43,187c17,9 56,17 85,17c56,1 55,0 67,66c10,53 51,117 93,145c20,14 39,25 43,25c3,0 -3,-26 -14,-57z"/>
   <path id="svg_27" d="m3900,3530c-19,-9 -52,-20 -72,-24c-55,-10 -95,-49 -113,-109c-8,-28 -15,-60 -15,-72c0,-20 -4,-22 -50,-17c-49,4 -52,3 -89,-36c-75,-79 -59,-196 32,-244c39,-20 61,-18 39,4c-18,18 -15,53 6,71c26,24 49,21 56,-5c10,-39 6,-159 -8,-231c-15,-77 -15,-77 74,-32c125,64 168,175 155,405c-9,166 -8,190 11,246c8,25 14,49 12,54c-2,4 -19,0 -38,-10zm-2,-66c-6,-21 -10,-75 -8,-119c8,-257 6,-297 -21,-356c-29,-60 -82,-118 -132,-142c-17,-9 -33,-14 -35,-13c-1,2 2,32 8,67c20,126 4,239 -33,239c-29,0 -67,-41 -67,-71l0,-30l-27,21c-54,42 -67,102 -38,165c20,41 52,58 114,59l50,1l7,50c10,79 36,121 86,138c57,21 102,35 105,33c1,-1 -3,-20 -9,-42z"/>
   <path id="svg_28" d="m4582,3469c-88,-44 -188,-171 -240,-304c-56,-145 -60,-235 -17,-355c49,-139 166,-242 318,-282c101,-26 336,48 462,145c89,69 133,146 137,239c2,51 -9,89 -18,63c-7,-18 -85,-137 -87,-134c-2,2 0,51 4,109c11,172 10,540 -1,540c-6,0 -25,-6 -44,-14c-31,-13 -33,-16 -35,-72c-11,-289 -29,-576 -37,-583c-17,-17 -179,-59 -249,-66c-62,-6 -75,-3 -115,17c-36,19 -52,37 -80,89l-35,64l1,150c0,167 11,219 70,336c42,85 38,93 -34,58zm38,-5c0,-3 -13,-25 -30,-49c-52,-76 -83,-185 -88,-317c-5,-134 11,-204 62,-271c76,-98 138,-121 270,-98c73,13 205,63 217,83c15,24 29,283 29,540c0,88 2,98 21,108c11,7 22,10 24,8c2,-2 0,-147 -5,-323c-5,-175 -8,-321 -5,-323c2,-2 15,-2 29,2c16,4 35,23 52,52c14,24 28,43 30,41c9,-8 -21,-86 -49,-131c-38,-61 -123,-124 -247,-184c-88,-43 -102,-47 -183,-51c-77,-3 -99,1 -163,24c-129,47 -212,144 -249,289c-15,61 -15,80 -5,150c17,108 60,219 120,303c56,81 170,179 170,147z"/>
   <path id="svg_29" d="m4820,3444c-41,-19 -94,-47 -117,-62c-43,-27 -43,-28 -37,-72c8,-61 12,-65 40,-39l24,22l0,-29c0,-41 -28,-337 -38,-407c-5,-31 -6,-59 -4,-62c3,-3 21,-5 39,-5c81,0 169,82 206,192c20,57 21,83 20,266c-2,208 -6,232 -42,232c-9,0 -50,-16 -91,-36zm93,-201l-5,-218l-41,-85c-35,-70 -49,-89 -82,-107c-22,-13 -48,-23 -59,-23c-16,0 -17,5 -12,33c27,122 46,487 27,487c-5,0 -18,-11 -29,-25c-26,-33 -32,-32 -32,8c1,26 7,35 33,49c18,9 67,34 111,57c43,23 82,41 86,41c5,0 6,-98 3,-217z"/>
   <path id="svg_30" d="m1531,1875c-94,-26 -144,-68 -223,-185c-36,-53 -60,-117 -42,-109c5,2 45,22 88,44c77,39 81,40 177,38c55,-1 148,-11 211,-24c62,-12 147,-23 188,-23c67,-1 81,2 132,32c74,43 158,119 158,143c0,10 -1,19 -2,19c-2,0 -40,-7 -85,-15c-93,-16 -167,-9 -262,27c-132,49 -159,56 -221,62c-43,4 -83,1 -119,-9zm229,-56c162,-58 219,-71 300,-66c41,3 84,8 95,12c16,6 16,3 -5,-14c-37,-32 -107,-72 -149,-87c-41,-14 -134,-6 -246,21c-33,8 -101,20 -152,26c-109,13 -163,1 -256,-55l-59,-36l20,31c62,99 136,154 243,183c80,22 115,19 209,-15z"/>
   <path id="svg_31" d="m2532,1860c-50,-12 -104,-59 -134,-120c-24,-46 -37,-100 -24,-100c3,0 18,14 36,31c35,36 54,35 174,-7c38,-13 87,-24 108,-24c82,0 183,79 222,174c16,38 11,73 -5,43c-12,-21 -110,-40 -161,-32c-23,4 -66,16 -97,26c-58,20 -68,21 -119,9zm244,-60c35,0 74,4 89,10c24,9 25,8 14,-11c-20,-39 -84,-102 -116,-116c-44,-18 -90,-16 -154,6c-76,26 -152,35 -178,21c-26,-14 -26,-7 0,39c50,87 112,108 213,74c43,-14 93,-23 132,-23z"/>
   <path id="svg_32" d="m3950,1839c-14,-11 -50,-24 -82,-31c-48,-10 -68,-9 -136,7c-47,10 -97,16 -121,12c-83,-11 -161,-99 -169,-190l-4,-52l30,35c35,41 64,43 188,10c50,-13 92,-18 116,-15c52,9 121,56 155,107c28,41 61,124 52,132c-2,2 -15,-5 -29,-15zm-249,-45c61,-18 160,-21 202,-5c38,15 39,14 26,-11c-28,-55 -81,-107 -124,-123c-42,-16 -48,-16 -117,1c-79,19 -172,24 -201,10c-16,-8 -17,-6 -5,20c31,74 88,123 144,124c11,0 45,-7 75,-16z"/>
   <path id="svg_33" d="m5441,1818c-37,-46 -58,-45 -291,3c-85,17 -255,8 -311,-18c-59,-26 -109,-77 -138,-139c-32,-66 -26,-181 12,-240c65,-104 178,-159 303,-147c55,5 66,4 62,-8c-6,-18 -105,-32 -180,-25c-83,8 -127,29 -179,87l-46,51l-22,-60c-38,-100 -7,-169 106,-233c53,-31 64,-33 153,-33l95,-1l-24,-50c-13,-27 -25,-52 -27,-54c-2,-3 -20,14 -39,37c-58,68 -127,75 -175,18c-19,-23 -17,-88 3,-119c42,-65 137,-82 201,-36c36,26 128,135 152,180c16,33 35,38 154,45c79,4 101,2 130,-13c47,-25 59,-61 38,-118c-10,-25 -15,-45 -13,-45c21,0 76,40 102,73c78,104 55,208 -62,270c-33,18 -57,22 -141,22c-73,0 -100,3 -97,11c6,17 39,24 120,24c118,0 229,-51 265,-122c16,-31 18,-43 9,-70c-19,-58 -149,-273 -163,-271c-7,1 -38,9 -68,18c-34,10 -96,17 -165,18c-96,1 -120,-3 -190,-27c-129,-44 -245,-134 -343,-265c-34,-45 -11,-41 106,19c53,27 122,56 152,64c124,34 321,23 425,-23c26,-12 53,-21 59,-20c17,0 143,185 234,344c141,246 161,312 122,403c-28,66 -103,135 -170,157c-27,9 -86,19 -131,23l-82,7l81,96c45,53 82,99 82,103c0,3 -19,25 -43,48l-43,43l-23,-27zm29,-119c-32,-36 -72,-88 -90,-115c-19,-27 -37,-50 -42,-52c-27,-12 5,-20 100,-25c134,-7 208,-32 268,-92c57,-58 63,-91 31,-186c-35,-104 -108,-240 -220,-412c-54,-81 -97,-152 -97,-157c0,-15 -17,-12 -61,11c-22,11 -77,27 -122,35c-153,27 -290,13 -411,-40c-33,-14 -61,-24 -63,-22c-8,8 115,98 172,125c96,47 176,63 310,65c104,1 126,-2 167,-21c42,-19 47,-20 53,-5c3,10 38,70 76,134c83,139 94,171 78,230c-26,99 -159,167 -303,155c-94,-8 -124,-20 -132,-51c-10,-40 2,-46 89,-46c139,0 227,-34 254,-98c13,-30 12,-38 -6,-75c-11,-23 -34,-58 -50,-77l-29,-35l0,44c1,121 -145,168 -312,100c-20,-8 -124,-131 -159,-187c-10,-16 -94,-42 -136,-42c-46,0 -85,39 -85,85c0,29 6,39 33,55c50,31 75,26 123,-25c23,-25 46,-45 51,-45c8,0 63,97 82,143c2,6 -11,7 -30,5c-50,-8 -179,12 -221,33c-51,26 -115,89 -123,122c-9,32 2,97 15,97c6,0 10,-6 10,-13c0,-20 50,-64 100,-86c52,-24 95,-26 204,-9c63,9 81,16 93,35c27,41 13,49 -90,56c-73,4 -105,11 -144,31c-70,35 -129,104 -142,167c-15,70 -14,78 15,137c30,61 87,109 151,128c66,20 229,17 357,-6c149,-27 162,-26 199,13l32,32l31,-25l30,-25l-56,-66z"/>
   <path id="svg_34" d="m4971,1729c-60,-12 -111,-55 -129,-108c-18,-54 -6,-86 49,-129c48,-36 126,-48 245,-37c69,6 76,9 85,33c6,15 24,48 41,75c35,54 34,56 -41,111c-48,35 -136,67 -180,65c-14,-1 -46,-5 -70,-10zm199,-55c53,-28 80,-48 80,-60c0,-5 -14,-29 -30,-54c-16,-25 -30,-53 -30,-64c0,-17 -8,-18 -117,-14c-132,5 -164,16 -193,63c-49,80 -6,137 118,154c74,10 116,4 172,-25z"/>
   <path id="svg_35" d="m4097,1811c-79,-32 -152,-93 -181,-153c-39,-80 -44,-129 -47,-433c-1,-154 -2,-295 -3,-313c-1,-29 -7,-35 -51,-56c-88,-40 -263,-220 -272,-278c-4,-23 -2,-23 74,8c93,36 222,63 348,70c95,6 122,4 195,-15c47,-12 97,-28 111,-35l27,-13l62,124c37,72 59,128 54,132c-5,5 -52,24 -104,42c-86,30 -106,33 -212,34l-118,0l0,117c0,108 2,119 22,138c30,28 107,28 139,0l24,-20l-22,-19c-29,-25 -29,-28 5,-33c15,-3 35,-9 44,-13c13,-5 20,-2 25,11c11,33 105,178 135,210l29,31l-25,17c-31,20 -52,21 -59,2c-5,-11 -15,-9 -53,10c-68,34 -144,33 -218,-4c-65,-33 -61,-38 -57,76c5,119 49,172 146,172c63,0 99,-22 91,-56c-7,-26 -4,-29 46,-38l36,-7l49,96c26,52 63,111 81,131c32,35 32,37 16,55c-14,15 -30,19 -73,18c-31,-1 -92,1 -136,5c-66,5 -88,3 -128,-13zm192,-12c31,-7 54,-6 78,2c26,8 37,8 48,-1c12,-10 10,-18 -19,-54c-19,-22 -52,-78 -75,-123c-31,-62 -46,-83 -61,-83c-16,0 -20,7 -20,30c0,56 -90,90 -175,65c-105,-30 -139,-111 -118,-283l6,-53l21,20c34,32 115,63 165,64c43,0 84,-16 145,-56c12,-7 20,-8 22,-2c13,31 23,40 35,28c10,-10 8,-17 -8,-35c-12,-13 -28,-34 -35,-48c-26,-47 -102,-160 -107,-160c-3,0 -13,5 -21,10c-13,8 -12,11 5,24c19,14 19,15 2,34c-24,27 -98,46 -143,38c-20,-4 -47,-18 -60,-31c-23,-23 -24,-30 -24,-160l0,-136l83,7c51,4 112,2 158,-5c81,-14 196,-48 204,-61c3,-5 -8,-30 -24,-55c-16,-26 -38,-69 -47,-96c-10,-27 -21,-49 -25,-49c-3,0 -23,7 -43,15c-156,65 -386,61 -596,-10c-84,-28 -85,-32 39,93c84,83 148,132 175,132c21,0 26,65 32,385c4,260 7,297 26,360c47,151 195,232 357,194z"/>
   <path id="svg_36" d="m3028,1807c-62,-24 -125,-65 -157,-104c-48,-58 -69,-139 -80,-308c-13,-179 -29,-369 -39,-444c-7,-53 -7,-53 -58,-72c-82,-31 -264,-190 -287,-251c-10,-26 4,-28 63,-8c88,29 232,50 350,50c95,0 123,-4 207,-31c54,-17 105,-38 115,-46c9,-8 18,-11 21,-6c3,4 20,35 38,68c18,33 47,82 66,110c18,27 33,53 33,57c0,15 -147,76 -235,98c-66,17 -104,21 -147,16l-58,-6l5,43c3,23 7,77 11,119c5,68 9,81 31,98c30,24 61,25 107,6c46,-19 54,-35 28,-57c-26,-20 -28,-29 -7,-29c9,0 29,-7 45,-15c27,-14 29,-14 36,8c7,24 97,147 144,197l30,32l-23,19c-28,23 -43,24 -56,2c-9,-17 -10,-17 -28,-1c-58,53 -166,63 -252,23l-54,-25l7,77c10,110 34,159 89,183c48,21 88,19 141,-7c24,-12 27,-19 22,-44c-5,-26 -3,-29 35,-39c23,-6 42,-10 44,-8c1,2 25,41 53,88c28,47 67,102 86,124c20,21 36,42 36,46c0,15 -54,34 -103,36c-29,1 -90,5 -137,8c-60,5 -96,2 -122,-7zm167,-13c35,-9 79,-13 106,-11c71,8 81,-5 38,-50c-20,-21 -55,-69 -77,-108c-59,-100 -57,-98 -81,-90c-12,3 -19,11 -15,16c11,19 -5,54 -33,70c-45,26 -94,31 -150,14c-92,-27 -123,-87 -123,-237l0,-87l48,29c91,57 181,57 254,-1c44,-35 54,-36 69,-8c7,15 14,18 21,11c8,-8 2,-22 -19,-49c-16,-21 -35,-47 -43,-59c-43,-61 -93,-124 -98,-124c-4,0 -14,5 -22,10c-13,8 -12,11 5,24c17,12 18,16 5,31c-36,43 -135,58 -190,30c-38,-20 -49,-60 -52,-197l-3,-107l90,0c98,1 218,-25 304,-64l49,-22l-53,-88c-29,-48 -55,-92 -57,-98c-2,-6 -26,0 -58,14c-30,13 -84,32 -120,42c-120,35 -374,20 -525,-30c-21,-7 -12,1 116,116c65,57 148,109 175,109c7,0 15,15 18,33c3,17 10,58 15,89c6,32 17,160 26,285c22,317 46,392 149,461c45,30 121,60 156,61c9,1 43,-6 75,-15z"/>
   <path id="svg_37" d="m2657,1580c-49,-31 -107,-109 -107,-144c0,-34 -12,-42 -73,-54c-32,-6 -72,-21 -89,-33c-33,-24 -68,-89 -68,-129c0,-42 36,-107 69,-124c42,-22 48,-20 56,13c8,37 27,53 57,49c20,-3 22,-8 20,-45c-6,-78 -41,-226 -65,-275c-24,-48 -24,-48 -3,-42c158,46 265,164 267,299c1,33 0,130 -1,215c-2,151 0,165 35,278c6,19 4,22 -22,22c-16,0 -50,-13 -76,-30zm58,-21c-22,-42 -34,-175 -32,-359c2,-176 -4,-198 -73,-281c-37,-44 -106,-97 -115,-88c-2,2 8,37 21,77c13,41 27,113 30,162c6,82 5,89 -14,99c-34,18 -62,13 -94,-19c-16,-16 -33,-30 -37,-30c-15,0 -41,71 -41,111c0,85 50,130 148,133l55,2l22,67c22,70 49,107 100,138c42,26 48,24 30,-12z"/>
   <path id="svg_38" d="m2043,1588c-28,-13 -33,-68 -36,-406l-2,-254l-104,-34c-137,-46 -230,-51 -284,-14c-57,39 -94,119 -107,231c-17,147 -1,258 57,393c18,43 32,80 31,82c-14,13 -71,-19 -124,-68c-109,-102 -179,-238 -203,-397c-35,-227 123,-444 360,-493c99,-20 263,32 408,129c121,82 171,162 171,276c0,37 -3,67 -7,67c-5,0 -26,-32 -47,-70c-22,-39 -41,-69 -42,-67c-2,2 -4,124 -4,273c0,148 -3,290 -7,317c-6,50 -16,56 -60,35zm38,-327c0,-289 2,-323 16,-328c18,-7 83,59 83,84c0,7 5,13 10,13c25,0 -22,-113 -70,-172c-39,-47 -180,-141 -257,-172c-35,-14 -91,-26 -143,-30c-171,-13 -303,60 -379,209c-47,94 -57,162 -39,270c20,117 49,189 110,281c44,66 143,162 155,151c2,-2 -14,-40 -37,-83c-100,-198 -91,-451 22,-578c74,-85 134,-101 263,-71c83,20 201,72 212,94c4,9 8,154 8,323c0,296 1,308 20,322c11,8 21,13 23,12c1,-2 2,-148 3,-325z"/>
   <path id="svg_39" d="m1783,1554c-37,-19 -89,-49 -115,-67c-40,-27 -48,-37 -48,-65c0,-18 5,-42 11,-54c11,-20 11,-20 35,3l24,22l0,-39c0,-51 -18,-318 -26,-400l-7,-64l32,0c55,0 127,45 165,103c59,88 69,152 61,372c-9,248 -12,252 -132,189zm92,-207l0,-222l-33,-70c-39,-82 -72,-120 -119,-136c-19,-6 -36,-9 -38,-7c-2,1 1,23 5,48c13,64 25,470 15,470c-5,0 -21,-12 -36,-26l-27,-25l-4,35c-2,23 0,36 8,36c6,0 28,11 48,25c39,26 165,95 175,95c3,0 6,-100 6,-223z"/>
   <path id="svg_40" d="m3765,1576c-67,-30 -135,-129 -135,-194c0,-27 -3,-30 -46,-36c-25,-3 -63,-15 -84,-27c-101,-57 -107,-214 -10,-264c39,-20 60,-13 60,19c0,29 38,60 62,51c11,-4 13,-20 11,-68c-5,-98 -24,-208 -43,-259l-18,-47l51,20c65,26 98,50 140,102c76,94 87,150 63,332c-9,65 -16,149 -16,185c1,59 5,85 26,173c5,22 3,27 -12,27c-11,-1 -32,-7 -49,-14zm30,-23c-28,-68 -31,-152 -13,-356c15,-176 6,-228 -55,-306c-36,-47 -105,-107 -113,-99c-1,2 6,35 16,73c12,44 19,107 19,167c1,96 1,98 -24,104c-39,10 -74,-4 -94,-37c-17,-27 -20,-29 -34,-15c-8,9 -23,36 -33,61c-15,42 -16,51 -3,93c18,57 52,79 135,90l59,7l6,46c4,25 16,64 28,86c29,58 127,136 106,86z"/>
  </g>
 </g>
</svg>