<?xml version="1.0" standalone="no"?>
<!DOCTYPE svg PUBLIC "-//W3C//DTD SVG 20010904//EN"
 "http://www.w3.org/TR/2001/REC-SVG-20010904/DTD/svg10.dtd">
<svg version="1.0" xmlns="http://www.w3.org/2000/svg"
 width="700.000000pt" height="614.000000pt" 
 preserveAspectRatio="xMidYMid meet">

<g transform="translate(0.000000,614.000000) scale(0.100000,-0.100000)"
fill="#000000" stroke="none">
<path d="M4148 5632 c-25 -3 -27 -7 -30 -55 l-3 -52 -65 -23 c-36 -13 -101
-40 -145 -62 l-80 -38 -1 -61 c0 -63 4 -68 38 -50 20 11 20 9 14 -48 -4 -32
-9 -166 -11 -298 -5 -220 -10 -280 -30 -327 -19 -47 95 -39 156 11 19 16 45
49 57 75 25 50 33 127 50 493 5 111 12 177 20 185 6 6 13 10 15 7 2 -2 0 -42
-4 -89 -5 -47 -13 -186 -19 -310 -5 -124 -13 -283 -16 -354 l-7 -128 -76 5
c-42 3 -93 10 -113 16 -54 17 -142 102 -175 169 -24 50 -28 69 -28 147 0 75 4
97 23 133 20 37 22 49 13 74 -18 52 -13 161 10 225 35 93 63 134 149 211 44
41 80 80 80 88 0 10 -14 14 -58 14 -87 0 -167 -43 -267 -144 -127 -128 -170
-229 -182 -427 -7 -130 10 -215 70 -339 33 -67 57 -101 117 -159 111 -109 218
-152 381 -153 148 -1 283 58 406 176 95 90 143 157 180 253 25 63 27 79 27
223 1 144 -1 161 -27 233 -46 131 -137 258 -240 334 l-59 43 -30 -30 c-38 -38
-46 -38 -50 3 -3 28 -7 32 -33 33 -16 0 -42 -2 -57 -4z m72 -52 c0 -22 5 -40
11 -40 15 0 51 20 76 43 l22 20 49 -44 c110 -100 174 -192 214 -308 20 -57 23
-86 23 -216 0 -179 -11 -219 -91 -341 -42 -64 -73 -97 -137 -146 -116 -90
-145 -106 -234 -129 -177 -48 -338 -9 -476 115 -88 79 -128 143 -162 261 -25
82 -26 100 -21 204 5 89 13 132 35 196 33 96 54 129 144 229 66 74 148 127
214 139 30 6 27 2 -46 -71 -60 -59 -87 -95 -117 -157 -35 -73 -39 -87 -39
-160 0 -52 6 -91 15 -110 15 -29 14 -33 -17 -93 -37 -71 -41 -116 -19 -199 23
-88 54 -139 119 -199 72 -67 106 -83 192 -91 79 -7 132 2 139 25 10 29 16 126
27 422 6 157 13 333 15 393 5 102 4 107 -14 107 -11 0 -31 -13 -45 -29 -26
-32 -27 -40 -43 -455 -6 -154 -9 -173 -33 -220 -27 -53 -82 -98 -136 -112 -25
-6 -27 -5 -21 12 12 31 37 276 31 304 -3 14 -1 102 4 194 11 182 6 215 -29
196 -26 -14 -25 -15 -25 32 l0 43 148 59 147 59 0 54 0 53 40 0 40 0 0 -40z"/>
<path d="M4239 5442 c0 -4 -6 -60 -13 -125 -12 -115 -11 -119 8 -133 32 -22
87 -17 129 12 21 14 37 29 35 33 -2 4 -32 53 -68 109 -58 90 -89 125 -91 104z
m76 -129 l57 -87 -24 -18 c-25 -19 -93 -24 -103 -8 -6 9 4 200 11 200 1 0 28
-39 59 -87z"/>
<path d="M4355 5109 c-34 -21 -67 -24 -97 -8 -30 16 -34 4 -41 -136 -4 -68 -8
-129 -9 -137 -2 -9 7 -12 31 -10 19 2 53 -2 76 -8 66 -18 79 -6 93 87 15 94
15 173 2 207 -11 30 -15 31 -55 5z m34 -174 c-6 -60 -13 -112 -14 -114 -2 -2
-27 2 -55 9 -28 7 -60 10 -70 7 -19 -5 -20 -1 -14 96 9 153 4 141 56 142 25 0
56 8 69 17 23 15 24 15 31 -16 4 -17 3 -80 -3 -141z"/>
<path d="M4223 4748 c-14 -17 -27 -228 -15 -228 5 0 27 13 49 29 47 34 90 103
99 158 l6 40 -38 6 c-59 10 -91 8 -101 -5z m90 -14 c32 -7 33 -15 8 -70 -18
-40 -86 -124 -100 -124 -11 0 10 195 23 202 6 4 18 6 26 3 8 -2 27 -7 43 -11z"/>
<path d="M3116 5563 c-50 -80 -109 -145 -144 -160 -34 -14 -36 -16 -17 -27 11
-6 36 -28 55 -48 19 -21 39 -38 43 -38 4 0 7 13 7 29 0 39 11 44 59 30 l39
-11 4 -92 c3 -50 5 -91 4 -92 -1 -1 -31 -4 -69 -7 l-67 -6 -44 67 c-24 37 -62
99 -84 137 -45 76 -115 154 -171 189 -43 27 -125 56 -159 56 -113 0 -211 -100
-243 -250 -9 -43 -8 -59 5 -95 10 -24 24 -46 33 -49 16 -7 33 9 33 31 0 6 16
28 34 48 39 41 67 43 77 5 12 -42 49 -197 49 -204 0 -3 -16 -6 -35 -6 -20 0
-49 -7 -64 -15 -35 -17 -71 -88 -71 -136 0 -50 45 -134 84 -159 49 -30 63 -27
58 14 -2 18 1 36 6 40 10 6 29 -87 34 -169 3 -38 2 -39 -34 -45 -20 -4 -45
-13 -55 -20 -82 -63 -123 -132 -123 -210 0 -54 5 -58 48 -36 15 7 58 21 96 31
60 16 77 17 138 7 38 -7 95 -23 128 -37 33 -14 64 -25 69 -25 5 0 22 27 37 61
18 39 44 75 75 103 l48 43 -34 39 c-19 22 -35 42 -35 47 0 4 -4 7 -10 7 -5 0
-10 -9 -10 -20 0 -11 -1 -20 -2 -20 -2 0 -27 9 -55 20 -29 11 -77 23 -108 26
l-55 7 0 77 0 77 54 18 c106 36 177 -11 266 -175 94 -174 190 -267 298 -290
30 -7 56 -9 59 -6 3 3 0 34 -6 69 -6 35 -11 91 -11 125 0 33 -9 188 -20 344
-11 156 -22 322 -25 370 l-6 87 39 20 c50 26 72 59 82 130 5 31 12 67 16 80 6
21 5 23 -12 16 -10 -5 -44 -11 -75 -13 -44 -3 -69 2 -117 22 -34 14 -68 26
-77 26 -8 0 -25 -17 -39 -37z m129 -24 c41 -14 75 -20 106 -17 l46 5 -8 -41
c-5 -23 -8 -48 -9 -55 0 -8 -23 -37 -52 -63 l-51 -49 2 -77 c1 -42 9 -165 17
-272 8 -107 19 -280 24 -385 5 -104 12 -200 16 -212 5 -17 2 -23 -10 -23 -64
0 -189 122 -261 255 -85 156 -156 215 -260 215 -58 0 -129 -27 -137 -52 -2 -7
-2 -48 0 -90 l4 -78 37 0 c53 0 148 -27 183 -52 21 -15 32 -17 37 -9 5 8 13 5
26 -9 10 -11 14 -20 9 -20 -21 0 -89 -78 -111 -128 l-25 -53 -31 20 c-36 22
-121 47 -185 55 -56 7 -135 -10 -191 -40 l-44 -24 7 42 c17 106 141 230 196
196 10 -7 21 -10 24 -7 4 4 -3 70 -22 214 -5 37 -12 51 -25 53 -24 5 -57 -25
-57 -51 0 -49 -66 52 -71 108 -5 67 1 93 31 125 28 30 34 32 80 28 27 -3 51
-3 54 -1 2 2 -3 32 -11 66 -7 34 -18 88 -23 121 -10 66 -32 96 -69 96 -37 0
-86 -33 -102 -69 -22 -50 -32 -36 -27 37 6 85 55 191 105 229 44 34 112 40
189 18 50 -14 69 -26 124 -84 41 -43 88 -107 127 -177 35 -60 73 -121 85 -135
23 -26 25 -26 113 -20 l90 6 -4 100 c-2 55 -7 105 -11 110 -17 20 -97 37 -119
25 -12 -6 -21 -15 -21 -21 0 -5 -13 0 -30 13 l-30 22 37 20 c35 20 66 56 115
134 14 22 26 32 37 28 9 -3 43 -15 76 -27z"/>
<path d="M2645 5283 c8 -51 26 -207 35 -311 4 -57 11 -106 13 -109 3 -2 16 2
29 10 33 21 91 29 123 17 43 -16 48 1 17 51 -53 84 -141 244 -158 289 -28 72
-68 109 -59 53z m165 -308 c46 -69 46 -68 16 -63 -26 5 -72 -2 -107 -16 -15
-6 -17 4 -18 88 -1 52 -6 121 -11 153 -6 32 -10 60 -10 63 0 3 23 -38 51 -90
29 -52 64 -113 79 -135z"/>
<path d="M3086 5043 l-28 -5 21 -22 c27 -29 74 -127 95 -198 29 -99 40 -85 33
43 -3 63 -9 131 -13 152 -6 35 -8 37 -43 36 -20 -1 -49 -4 -65 -6z m88 -69 c7
-65 2 -80 -14 -38 -6 16 -23 44 -36 61 l-25 33 34 0 c34 0 34 0 41 -56z"/>
<path d="M5910 3836 c-43 -25 -152 -27 -219 -2 -84 31 -151 16 -215 -48 -42
-42 -66 -94 -66 -141 l0 -33 34 34 c32 32 38 34 78 28 24 -4 67 -15 97 -26
109 -37 197 -15 270 68 33 37 72 128 60 138 -2 2 -20 -6 -39 -18z m-235 -26
c63 -22 167 -27 211 -10 15 6 28 9 30 7 6 -5 -71 -100 -97 -120 -43 -31 -87
-36 -159 -16 -96 25 -165 32 -189 19 -40 -21 -14 44 36 92 54 51 85 56 168 28z"/>
<path d="M2945 3809 c-22 -22 -66 -54 -98 -70 l-57 -29 15 -36 c8 -20 15 -38
15 -40 0 -3 12 -1 26 2 17 4 29 2 35 -7 5 -8 8 -78 8 -155 l0 -141 -92 5 c-51
2 -93 5 -94 6 -1 1 -5 75 -8 164 -6 161 -6 162 20 199 31 47 32 67 0 98 -42
43 -121 24 -145 -35 -12 -28 -11 -36 5 -63 21 -36 23 -69 29 -544 l3 -323 -91
0 c-182 0 -349 -74 -418 -185 -30 -49 -25 -54 40 -39 115 27 214 13 334 -47
32 -16 60 -29 62 -29 3 0 21 21 41 48 55 72 133 150 166 164 37 16 36 24 -3
66 l-33 33 1 140 c1 77 3 141 5 143 2 2 43 6 90 8 l87 4 4 -145 c5 -161 0
-180 -52 -224 -16 -14 -30 -28 -30 -30 0 -3 12 -8 26 -11 42 -11 111 -82 135
-142 13 -30 25 -54 29 -54 3 0 14 16 24 34 26 50 50 69 144 116 45 23 82 46
82 50 0 4 -7 13 -16 21 -8 7 -22 25 -30 41 -12 22 -19 27 -38 22 -17 -4 -25 0
-30 13 -7 17 -21 291 -32 608 l-5 150 40 18 c30 14 43 28 60 67 12 27 21 53
21 59 0 6 -21 11 -50 11 -60 0 -116 26 -153 70 -14 16 -27 30 -29 30 -2 0 -22
-18 -43 -41z m-241 -21 c22 -31 20 -45 -11 -74 l-27 -25 2 -153 c2 -84 6 -165
10 -180 8 -28 8 -29 97 -31 50 -2 95 -4 100 -5 32 -7 34 1 34 151 1 164 -3
179 -49 179 -27 0 -40 15 -40 44 0 8 21 21 47 31 25 10 63 33 83 51 l37 34 19
-22 c29 -32 93 -58 147 -58 26 0 47 -3 47 -6 0 -3 -11 -25 -25 -49 -18 -31
-38 -48 -66 -59 -36 -15 -40 -19 -35 -44 3 -15 8 -175 11 -357 8 -398 12 -422
75 -417 18 1 29 -6 41 -26 l16 -29 -65 -28 c-36 -16 -86 -48 -110 -72 -25 -23
-46 -42 -46 -40 -16 49 -91 137 -127 149 -10 3 -2 17 25 49 36 42 37 47 32 94
-3 28 -6 101 -6 163 l0 114 -114 -4 c-63 -1 -117 -6 -120 -9 -4 -3 -7 -76 -7
-162 l0 -157 32 -28 32 -28 -44 -26 c-45 -26 -121 -101 -153 -150 l-17 -27
-51 26 c-98 49 -216 66 -310 44 -21 -5 -38 -7 -38 -5 0 12 72 67 120 93 101
54 169 71 284 71 l105 0 -4 228 c-14 648 -14 644 -30 662 -37 41 -5 110 50
110 24 0 39 -7 49 -22z"/>
<path d="M6075 3812 c-112 -40 -182 -106 -214 -206 -16 -46 -22 -98 -26 -211
-6 -185 -14 -337 -21 -433 l-6 -73 -53 -24 c-72 -32 -226 -171 -255 -230 -12
-25 -20 -48 -18 -50 2 -3 26 4 54 14 97 37 243 62 373 64 121 2 130 0 229 -34
l103 -35 28 60 c15 34 42 83 59 110 18 28 32 56 32 63 0 17 -109 66 -196 88
-42 11 -102 18 -154 17 l-85 -1 3 102 c1 56 5 112 7 124 11 50 102 64 163 26
l24 -15 -23 -24 c-25 -27 -26 -26 22 -42 44 -15 49 -15 49 1 0 13 77 130 130
197 l33 42 -24 19 c-31 24 -38 24 -47 -1 -7 -19 -9 -19 -47 7 -60 41 -153 44
-230 9 l-57 -26 4 90 c4 97 16 123 72 164 32 25 96 27 141 5 25 -12 30 -20 28
-46 -2 -27 1 -31 25 -35 15 -3 34 -8 43 -12 12 -5 19 -1 25 16 22 58 88 169
124 206 l40 41 -25 17 c-16 11 -50 18 -88 19 -34 1 -91 5 -127 9 -49 4 -77 2
-115 -12z m242 -16 c40 -1 75 -5 79 -8 3 -4 -13 -30 -36 -59 -22 -29 -58 -85
-78 -126 -24 -50 -40 -72 -50 -68 -7 3 -18 5 -23 5 -5 0 -7 11 -3 24 8 32 -22
61 -77 76 -83 23 -186 -24 -208 -93 -11 -34 -16 -121 -13 -201 l2 -50 28 27
c63 61 179 80 242 39 73 -45 81 -48 95 -28 8 10 19 15 25 11 7 -4 4 -15 -10
-33 -15 -21 -128 -187 -136 -200 0 -1 -11 1 -24 6 l-23 9 21 14 c25 18 19 29
-28 58 -60 36 -163 22 -189 -27 -5 -10 -11 -76 -12 -147 l-2 -129 90 3 c50 1
119 -3 154 -9 78 -15 199 -58 199 -72 0 -5 -8 -22 -19 -36 -10 -15 -33 -55
-50 -89 -17 -35 -35 -63 -40 -63 -5 0 -29 8 -53 19 -157 67 -376 66 -600 -2
-62 -19 -58 -14 65 101 75 71 108 95 144 105 l48 14 11 104 c6 57 15 192 18
299 4 107 10 220 12 250 16 170 157 299 309 284 33 -3 92 -7 132 -8z"/>
<path d="M1156 3758 l-57 -63 3 45 c2 41 0 45 -21 48 -27 4 -80 -5 -98 -16
-10 -6 -9 -22 3 -72 12 -51 12 -65 2 -72 -24 -15 -34 -8 -52 32 -22 51 -99
126 -144 141 -58 19 -137 7 -180 -28 -78 -63 -125 -176 -104 -255 12 -47 33
-45 64 7 41 69 126 110 142 69 3 -8 10 -68 16 -132 6 -64 13 -132 16 -150 5
-31 4 -32 -21 -26 -61 15 -138 -24 -171 -88 -19 -36 -21 -116 -5 -155 15 -37
85 -80 98 -61 7 13 8 17 11 49 3 24 43 72 52 62 5 -4 12 -74 15 -154 l8 -146
-33 -7 c-45 -9 -104 -73 -125 -136 -9 -28 -14 -54 -11 -58 4 -3 28 2 54 11 83
30 132 17 221 -57 24 -20 47 -36 51 -36 5 0 30 23 57 51 59 63 108 89 168 89
60 0 112 -27 191 -101 35 -32 69 -59 75 -59 6 0 23 14 37 32 52 62 84 88 148
119 88 43 189 51 259 20 78 -34 77 -35 70 82 -4 56 -13 138 -21 182 -9 49 -15
164 -17 295 -2 226 8 299 53 390 10 19 21 45 24 58 7 20 4 22 -37 22 -82 0
-149 38 -183 103 -8 15 -20 27 -28 27 -7 0 -32 -23 -55 -50 -23 -28 -56 -57
-72 -65 l-29 -16 0 45 0 44 -57 5 c-71 6 -86 -7 -81 -70 2 -24 0 -43 -4 -43
-22 0 -43 19 -89 81 -30 41 -58 69 -69 69 -10 0 -43 -28 -74 -62z m-333 1 c33
-22 59 -52 88 -100 l40 -69 36 15 c19 8 38 15 41 15 4 0 -2 52 -14 118 -6 31
-5 32 25 32 l31 0 0 -60 c0 -41 4 -60 12 -60 7 0 44 32 82 72 l69 72 16 -24
c28 -45 97 -109 124 -115 49 -13 60 -1 55 61 l-5 55 36 -3 c35 -3 36 -4 39
-52 3 -48 3 -48 33 -42 52 10 99 37 126 73 l26 34 15 -23 c32 -46 116 -87 180
-88 l33 0 -21 -29 c-34 -48 -52 -101 -65 -191 -16 -105 -10 -391 10 -545 7
-60 16 -138 20 -172 l6 -62 -28 14 c-119 59 -343 -1 -440 -119 l-31 -38 -33
42 c-22 27 -58 53 -106 77 -65 32 -78 35 -131 31 -72 -7 -112 -27 -166 -83
l-42 -42 -33 28 c-61 51 -147 70 -220 49 -19 -5 -36 -8 -39 -6 -2 3 12 30 32
60 36 56 85 96 119 96 9 0 17 6 17 13 3 63 -2 291 -6 302 -7 18 -39 28 -68 21
-27 -7 -57 -48 -66 -91 l-6 -30 -18 27 c-43 65 -25 172 36 224 27 22 39 25 87
22 l56 -3 -3 135 c-1 74 -7 150 -13 167 -14 43 -44 63 -93 63 -34 0 -46 -7
-83 -45 -46 -48 -49 -45 -32 34 31 146 162 213 272 140z"/>
<path d="M1565 3620 c-10 -11 -25 -20 -32 -20 -12 0 -14 -21 -11 -119 1 -66 6
-122 10 -126 10 -11 118 -7 132 4 11 9 10 21 -1 64 -8 30 -12 74 -9 105 4 41
2 52 -10 52 -8 0 -23 13 -32 30 -20 35 -23 36 -47 10z m39 -45 c16 -12 20 -28
21 -83 1 -37 5 -79 9 -93 7 -23 4 -27 -19 -33 -57 -14 -63 -4 -67 101 -2 70 1
100 10 110 17 16 22 16 46 -2z"/>
<path d="M1096 3557 c-23 -185 -20 -202 39 -213 57 -10 65 1 69 102 l3 90 -31
19 c-80 50 -74 50 -80 2z m80 -113 l2 -85 -32 3 -31 3 -3 89 c-4 115 0 124 35
96 25 -20 27 -27 29 -106z"/>
<path d="M1403 3549 l-33 -21 -2 -141 c-1 -78 -1 -234 -1 -347 l1 -205 35 -37
c35 -38 67 -49 67 -25 0 6 0 127 0 267 0 327 -9 530 -24 530 -6 0 -26 -10 -43
-21z m34 -369 c2 -363 1 -369 -18 -357 -21 13 -21 -4 -23 437 -1 205 2 258 13
273 8 9 17 17 20 17 4 0 7 -166 8 -370z"/>
<path d="M979 3542 l-27 -16 -4 -355 c-2 -196 -2 -366 0 -379 6 -30 48 -41 70
-18 15 15 17 55 18 371 0 195 -1 368 -4 384 -5 34 -15 37 -53 13z m31 -207 c1
-107 1 -249 1 -315 0 -256 1 -240 -21 -240 -11 0 -20 3 -20 8 0 4 -1 168 -2
365 -1 366 -1 376 35 377 4 0 7 -88 7 -195z"/>
<path d="M1554 3293 c-37 -5 -44 -26 -44 -127 0 -103 2 -106 76 -106 63 0 63
0 60 28 -2 15 -4 69 -5 120 l-1 92 -27 -2 c-16 0 -42 -3 -59 -5z m66 -113 l0
-100 -40 3 -40 2 0 80 c0 87 5 100 35 108 45 11 45 11 45 -93z"/>
<path d="M1096 3234 c-3 -26 -6 -75 -6 -110 0 -60 2 -64 25 -70 34 -8 72 2 84
24 5 9 6 58 2 107 l-6 90 -46 3 -46 3 -7 -47z m74 -23 c0 -25 4 -63 9 -84 8
-31 6 -39 -9 -47 -10 -6 -28 -10 -39 -10 -16 0 -20 5 -17 23 3 12 5 56 5 98 1
76 1 76 26 71 22 -4 25 -9 25 -51z"/>
<path d="M1140 3021 l-35 -6 -7 -90 c-4 -49 -9 -103 -12 -120 -3 -16 -2 -37 4
-45 7 -12 12 -12 29 4 11 10 35 21 53 25 25 6 32 12 30 27 -2 10 -6 63 -9 117
-3 53 -8 96 -12 96 -3 -1 -22 -4 -41 -8z m25 -83 c0 -35 3 -77 7 -94 6 -27 4
-31 -24 -42 -18 -6 -33 -10 -35 -8 -2 2 -1 49 3 105 6 94 8 101 28 101 19 0
21 -6 21 -62z"/>
<path d="M1571 3006 c-32 -8 -46 -18 -53 -36 -11 -27 -2 -220 10 -231 4 -4 31
-5 61 -2 l54 6 -6 130 c-3 71 -9 133 -14 137 -4 4 -28 2 -52 -4z m39 -131 c0
-107 -1 -115 -19 -115 -11 0 -26 -3 -35 -6 -14 -5 -16 8 -16 108 0 63 3 118 7
121 3 4 19 7 35 7 l28 0 0 -115z"/>
<path d="M2145 3802 c-73 -34 -121 -116 -113 -194 l3 -30 35 31 c63 56 94 57
225 7 49 -18 135 -21 157 -3 27 21 87 105 94 132 6 25 6 26 -37 18 -70 -13
-117 -7 -182 23 -80 35 -131 40 -182 16z m165 -43 c65 -28 82 -31 142 -27 61
5 66 4 58 -12 -5 -9 -27 -33 -50 -53 -49 -45 -76 -47 -165 -11 -53 21 -76 25
-123 21 -31 -3 -68 -9 -82 -13 l-24 -7 26 44 c30 51 80 89 117 89 15 0 60 -14
101 -31z"/>
<path d="M4579 3776 c-79 -21 -134 -61 -194 -140 -50 -67 -83 -131 -73 -141 2
-2 37 13 78 33 72 36 77 37 179 36 61 -1 138 -8 181 -18 176 -40 243 -49 295
-37 48 11 120 51 180 99 29 24 60 70 53 78 -3 2 -43 -1 -90 -7 -106 -13 -168
-3 -286 47 -147 61 -233 74 -323 50z m264 -70 c134 -57 189 -69 289 -64 48 3
88 5 88 3 0 -3 -94 -62 -130 -81 -21 -11 -55 -17 -85 -17 -47 1 -80 7 -260 49
-38 9 -108 17 -155 18 -90 1 -130 -11 -214 -62 l-38 -24 18 32 c31 51 97 115
145 138 124 60 213 62 342 8z"/>
<path d="M3587 3765 c-55 -19 -84 -50 -123 -132 -47 -99 -46 -127 4 -80 20 19
34 22 90 21 37 -1 86 -7 110 -13 24 -7 74 -12 112 -13 106 -1 211 57 255 142
21 41 10 54 -34 39 -45 -16 -140 -5 -230 26 -83 28 -128 31 -184 10z m181 -60
c78 -27 187 -34 225 -14 22 12 22 12 4 -9 -71 -79 -166 -102 -323 -77 -103 16
-173 10 -189 -15 -3 -6 -11 -10 -16 -10 -26 0 67 125 105 140 41 17 122 10
194 -15z"/>
<path d="M4148 3713 c-32 -5 -112 -82 -138 -133 -30 -59 -59 -165 -66 -245 -4
-42 -1 -172 6 -288 12 -192 11 -217 -4 -269 -20 -69 -54 -98 -116 -98 -37 0
-56 10 -143 72 -94 68 -104 72 -161 76 -51 3 -66 0 -96 -20 -53 -36 -80 -91
-80 -166 0 -78 15 -88 70 -43 51 41 78 40 197 -8 116 -47 188 -58 269 -41 85
18 132 43 193 103 69 67 90 110 103 210 9 70 8 105 -11 237 -11 86 -21 178
-21 205 0 95 45 320 70 350 6 8 10 24 8 37 -3 24 -25 30 -80 21z m42 -65 c-23
-52 -58 -238 -63 -333 -3 -38 3 -117 11 -175 9 -58 16 -152 16 -210 1 -95 -2
-110 -27 -162 -53 -107 -174 -187 -298 -196 -70 -5 -125 9 -224 55 -59 27
-141 31 -187 7 l-30 -16 7 44 c14 85 65 148 119 148 33 0 76 -25 163 -96 62
-51 110 -68 174 -62 54 6 88 30 117 83 15 26 16 55 12 210 -2 99 -4 245 -4
325 0 134 2 151 28 220 16 41 39 90 53 108 33 44 100 92 129 92 l23 0 -19 -42z"/>
<path d="M2519 3634 c-8 -9 -42 -34 -76 -56 -51 -32 -67 -49 -89 -94 -24 -49
-26 -59 -17 -104 10 -49 9 -50 -11 -44 -106 34 -217 -62 -196 -171 5 -30 78
-95 106 -95 8 0 24 15 34 33 17 29 55 57 77 57 10 0 -8 -202 -23 -242 -7 -22
-23 -53 -34 -69 -12 -16 -19 -29 -15 -29 3 0 40 16 81 37 90 43 147 103 169
177 12 38 15 94 15 216 -2 245 0 363 6 383 7 22 -9 22 -27 1z m-5 -291 c-2
-221 -4 -264 -20 -303 -22 -57 -66 -113 -108 -139 -38 -24 -53 -27 -38 -8 22
27 42 221 26 261 -7 18 -55 21 -85 5 -11 -5 -28 -23 -38 -39 l-18 -30 -21 20
c-41 38 -55 79 -43 120 18 59 82 103 131 89 66 -19 70 -16 70 64 0 89 23 132
95 181 28 19 50 34 50 35 0 1 -1 -115 -1 -256z"/>
<path d="M5723 3584 c-69 -34 -133 -129 -133 -196 0 -10 -7 -18 -15 -18 -7 0
-37 -5 -65 -11 -133 -28 -182 -183 -85 -268 20 -17 41 -31 48 -31 7 0 19 17
28 39 16 38 46 56 69 41 19 -12 -12 -233 -43 -309 -14 -34 -23 -61 -20 -61 2
0 37 15 77 34 58 26 83 46 123 93 73 88 79 118 63 328 -13 177 -9 264 16 324
8 18 14 37 14 42 0 14 -42 10 -77 -7z m24 -61 c-18 -53 -19 -76 -13 -273 5
-136 3 -227 -3 -249 -18 -60 -136 -191 -172 -191 -3 0 3 26 14 58 25 71 36
254 17 277 -20 24 -64 18 -94 -11 -14 -15 -26 -31 -26 -36 0 -18 -20 4 -40 42
-38 74 -19 154 43 187 17 9 56 17 85 17 56 1 55 0 67 66 10 53 51 117 93 145
20 14 39 25 43 25 3 0 -3 -26 -14 -57z"/>
<path d="M3900 3530 c-19 -9 -52 -20 -72 -24 -55 -10 -95 -49 -113 -109 -8
-28 -15 -60 -15 -72 0 -20 -4 -22 -50 -17 -49 4 -52 3 -89 -36 -75 -79 -59
-196 32 -244 39 -20 61 -18 39 4 -18 18 -15 53 6 71 26 24 49 21 56 -5 10 -39
6 -159 -8 -231 -15 -77 -15 -77 74 -32 125 64 168 175 155 405 -9 166 -8 190
11 246 8 25 14 49 12 54 -2 4 -19 0 -38 -10z m-2 -66 c-6 -21 -10 -75 -8 -119
8 -257 6 -297 -21 -356 -29 -60 -82 -118 -132 -142 -17 -9 -33 -14 -35 -13 -1
2 2 32 8 67 20 126 4 239 -33 239 -29 0 -67 -41 -67 -71 l0 -30 -27 21 c-54
42 -67 102 -38 165 20 41 52 58 114 59 l50 1 7 50 c10 79 36 121 86 138 57 21
102 35 105 33 1 -1 -3 -20 -9 -42z"/>
<path d="M4582 3469 c-88 -44 -188 -171 -240 -304 -56 -145 -60 -235 -17 -355
49 -139 166 -242 318 -282 101 -26 336 48 462 145 89 69 133 146 137 239 2 51
-9 89 -18 63 -7 -18 -85 -137 -87 -134 -2 2 0 51 4 109 11 172 10 540 -1 540
-6 0 -25 -6 -44 -14 -31 -13 -33 -16 -35 -72 -11 -289 -29 -576 -37 -583 -17
-17 -179 -59 -249 -66 -62 -6 -75 -3 -115 17 -36 19 -52 37 -80 89 l-35 64 1
150 c0 167 11 219 70 336 42 85 38 93 -34 58z m38 -5 c0 -3 -13 -25 -30 -49
-52 -76 -83 -185 -88 -317 -5 -134 11 -204 62 -271 76 -98 138 -121 270 -98
73 13 205 63 217 83 15 24 29 283 29 540 0 88 2 98 21 108 11 7 22 10 24 8 2
-2 0 -147 -5 -323 -5 -175 -8 -321 -5 -323 2 -2 15 -2 29 2 16 4 35 23 52 52
14 24 28 43 30 41 9 -8 -21 -86 -49 -131 -38 -61 -123 -124 -247 -184 -88 -43
-102 -47 -183 -51 -77 -3 -99 1 -163 24 -129 47 -212 144 -249 289 -15 61 -15
80 -5 150 17 108 60 219 120 303 56 81 170 179 170 147z"/>
<path d="M4820 3444 c-41 -19 -94 -47 -117 -62 -43 -27 -43 -28 -37 -72 8 -61
12 -65 40 -39 l24 22 0 -29 c0 -41 -28 -337 -38 -407 -5 -31 -6 -59 -4 -62 3
-3 21 -5 39 -5 81 0 169 82 206 192 20 57 21 83 20 266 -2 208 -6 232 -42 232
-9 0 -50 -16 -91 -36z m93 -201 l-5 -218 -41 -85 c-35 -70 -49 -89 -82 -107
-22 -13 -48 -23 -59 -23 -16 0 -17 5 -12 33 27 122 46 487 27 487 -5 0 -18
-11 -29 -25 -26 -33 -32 -32 -32 8 1 26 7 35 33 49 18 9 67 34 111 57 43 23
82 41 86 41 5 0 6 -98 3 -217z"/>
<path d="M1531 1875 c-94 -26 -144 -68 -223 -185 -36 -53 -60 -117 -42 -109 5
2 45 22 88 44 77 39 81 40 177 38 55 -1 148 -11 211 -24 62 -12 147 -23 188
-23 67 -1 81 2 132 32 74 43 158 119 158 143 0 10 -1 19 -2 19 -2 0 -40 -7
-85 -15 -93 -16 -167 -9 -262 27 -132 49 -159 56 -221 62 -43 4 -83 1 -119 -9z
m229 -56 c162 -58 219 -71 300 -66 41 3 84 8 95 12 16 6 16 3 -5 -14 -37 -32
-107 -72 -149 -87 -41 -14 -134 -6 -246 21 -33 8 -101 20 -152 26 -109 13
-163 1 -256 -55 l-59 -36 20 31 c62 99 136 154 243 183 80 22 115 19 209 -15z"/>
<path d="M2532 1860 c-50 -12 -104 -59 -134 -120 -24 -46 -37 -100 -24 -100 3
0 18 14 36 31 35 36 54 35 174 -7 38 -13 87 -24 108 -24 82 0 183 79 222 174
16 38 11 73 -5 43 -12 -21 -110 -40 -161 -32 -23 4 -66 16 -97 26 -58 20 -68
21 -119 9z m244 -60 c35 0 74 4 89 10 24 9 25 8 14 -11 -20 -39 -84 -102 -116
-116 -44 -18 -90 -16 -154 6 -76 26 -152 35 -178 21 -26 -14 -26 -7 0 39 50
87 112 108 213 74 43 -14 93 -23 132 -23z"/>
<path d="M3950 1839 c-14 -11 -50 -24 -82 -31 -48 -10 -68 -9 -136 7 -47 10
-97 16 -121 12 -83 -11 -161 -99 -169 -190 l-4 -52 30 35 c35 41 64 43 188 10
50 -13 92 -18 116 -15 52 9 121 56 155 107 28 41 61 124 52 132 -2 2 -15 -5
-29 -15z m-249 -45 c61 -18 160 -21 202 -5 38 15 39 14 26 -11 -28 -55 -81
-107 -124 -123 -42 -16 -48 -16 -117 1 -79 19 -172 24 -201 10 -16 -8 -17 -6
-5 20 31 74 88 123 144 124 11 0 45 -7 75 -16z"/>
<path d="M5441 1818 c-37 -46 -58 -45 -291 3 -85 17 -255 8 -311 -18 -59 -26
-109 -77 -138 -139 -32 -66 -26 -181 12 -240 65 -104 178 -159 303 -147 55 5
66 4 62 -8 -6 -18 -105 -32 -180 -25 -83 8 -127 29 -179 87 l-46 51 -22 -60
c-38 -100 -7 -169 106 -233 53 -31 64 -33 153 -33 l95 -1 -24 -50 c-13 -27
-25 -52 -27 -54 -2 -3 -20 14 -39 37 -58 68 -127 75 -175 18 -19 -23 -17 -88
3 -119 42 -65 137 -82 201 -36 36 26 128 135 152 180 16 33 35 38 154 45 79 4
101 2 130 -13 47 -25 59 -61 38 -118 -10 -25 -15 -45 -13 -45 21 0 76 40 102
73 78 104 55 208 -62 270 -33 18 -57 22 -141 22 -73 0 -100 3 -97 11 6 17 39
24 120 24 118 0 229 -51 265 -122 16 -31 18 -43 9 -70 -19 -58 -149 -273 -163
-271 -7 1 -38 9 -68 18 -34 10 -96 17 -165 18 -96 1 -120 -3 -190 -27 -129
-44 -245 -134 -343 -265 -34 -45 -11 -41 106 19 53 27 122 56 152 64 124 34
321 23 425 -23 26 -12 53 -21 59 -20 17 0 143 185 234 344 141 246 161 312
122 403 -28 66 -103 135 -170 157 -27 9 -86 19 -131 23 l-82 7 81 96 c45 53
82 99 82 103 0 3 -19 25 -43 48 l-43 43 -23 -27z m29 -119 c-32 -36 -72 -88
-90 -115 -19 -27 -37 -50 -42 -52 -27 -12 5 -20 100 -25 134 -7 208 -32 268
-92 57 -58 63 -91 31 -186 -35 -104 -108 -240 -220 -412 -54 -81 -97 -152 -97
-157 0 -15 -17 -12 -61 11 -22 11 -77 27 -122 35 -153 27 -290 13 -411 -40
-33 -14 -61 -24 -63 -22 -8 8 115 98 172 125 96 47 176 63 310 65 104 1 126
-2 167 -21 42 -19 47 -20 53 -5 3 10 38 70 76 134 83 139 94 171 78 230 -26
99 -159 167 -303 155 -94 -8 -124 -20 -132 -51 -10 -40 2 -46 89 -46 139 0
227 -34 254 -98 13 -30 12 -38 -6 -75 -11 -23 -34 -58 -50 -77 l-29 -35 0 44
c1 121 -145 168 -312 100 -20 -8 -124 -131 -159 -187 -10 -16 -94 -42 -136
-42 -46 0 -85 39 -85 85 0 29 6 39 33 55 50 31 75 26 123 -25 23 -25 46 -45
51 -45 8 0 63 97 82 143 2 6 -11 7 -30 5 -50 -8 -179 12 -221 33 -51 26 -115
89 -123 122 -9 32 2 97 15 97 6 0 10 -6 10 -13 0 -20 50 -64 100 -86 52 -24
95 -26 204 -9 63 9 81 16 93 35 27 41 13 49 -90 56 -73 4 -105 11 -144 31 -70
35 -129 104 -142 167 -15 70 -14 78 15 137 30 61 87 109 151 128 66 20 229 17
357 -6 149 -27 162 -26 199 13 l32 32 31 -25 30 -25 -56 -66z"/>
<path d="M4971 1729 c-60 -12 -111 -55 -129 -108 -18 -54 -6 -86 49 -129 48
-36 126 -48 245 -37 69 6 76 9 85 33 6 15 24 48 41 75 35 54 34 56 -41 111
-48 35 -136 67 -180 65 -14 -1 -46 -5 -70 -10z m199 -55 c53 -28 80 -48 80
-60 0 -5 -14 -29 -30 -54 -16 -25 -30 -53 -30 -64 0 -17 -8 -18 -117 -14 -132
5 -164 16 -193 63 -49 80 -6 137 118 154 74 10 116 4 172 -25z"/>
<path d="M4097 1811 c-79 -32 -152 -93 -181 -153 -39 -80 -44 -129 -47 -433
-1 -154 -2 -295 -3 -313 -1 -29 -7 -35 -51 -56 -88 -40 -263 -220 -272 -278
-4 -23 -2 -23 74 8 93 36 222 63 348 70 95 6 122 4 195 -15 47 -12 97 -28 111
-35 l27 -13 62 124 c37 72 59 128 54 132 -5 5 -52 24 -104 42 -86 30 -106 33
-212 34 l-118 0 0 117 c0 108 2 119 22 138 30 28 107 28 139 0 l24 -20 -22
-19 c-29 -25 -29 -28 5 -33 15 -3 35 -9 44 -13 13 -5 20 -2 25 11 11 33 105
178 135 210 l29 31 -25 17 c-31 20 -52 21 -59 2 -5 -11 -15 -9 -53 10 -68 34
-144 33 -218 -4 -65 -33 -61 -38 -57 76 5 119 49 172 146 172 63 0 99 -22 91
-56 -7 -26 -4 -29 46 -38 l36 -7 49 96 c26 52 63 111 81 131 32 35 32 37 16
55 -14 15 -30 19 -73 18 -31 -1 -92 1 -136 5 -66 5 -88 3 -128 -13z m192 -12
c31 -7 54 -6 78 2 26 8 37 8 48 -1 12 -10 10 -18 -19 -54 -19 -22 -52 -78 -75
-123 -31 -62 -46 -83 -61 -83 -16 0 -20 7 -20 30 0 56 -90 90 -175 65 -105
-30 -139 -111 -118 -283 l6 -53 21 20 c34 32 115 63 165 64 43 0 84 -16 145
-56 12 -7 20 -8 22 -2 13 31 23 40 35 28 10 -10 8 -17 -8 -35 -12 -13 -28 -34
-35 -48 -26 -47 -102 -160 -107 -160 -3 0 -13 5 -21 10 -13 8 -12 11 5 24 19
14 19 15 2 34 -24 27 -98 46 -143 38 -20 -4 -47 -18 -60 -31 -23 -23 -24 -30
-24 -160 l0 -136 83 7 c51 4 112 2 158 -5 81 -14 196 -48 204 -61 3 -5 -8 -30
-24 -55 -16 -26 -38 -69 -47 -96 -10 -27 -21 -49 -25 -49 -3 0 -23 7 -43 15
-156 65 -386 61 -596 -10 -84 -28 -85 -32 39 93 84 83 148 132 175 132 21 0
26 65 32 385 4 260 7 297 26 360 47 151 195 232 357 194z"/>
<path d="M3028 1807 c-62 -24 -125 -65 -157 -104 -48 -58 -69 -139 -80 -308
-13 -179 -29 -369 -39 -444 -7 -53 -7 -53 -58 -72 -82 -31 -264 -190 -287
-251 -10 -26 4 -28 63 -8 88 29 232 50 350 50 95 0 123 -4 207 -31 54 -17 105
-38 115 -46 9 -8 18 -11 21 -6 3 4 20 35 38 68 18 33 47 82 66 110 18 27 33
53 33 57 0 15 -147 76 -235 98 -66 17 -104 21 -147 16 l-58 -6 5 43 c3 23 7
77 11 119 5 68 9 81 31 98 30 24 61 25 107 6 46 -19 54 -35 28 -57 -26 -20
-28 -29 -7 -29 9 0 29 -7 45 -15 27 -14 29 -14 36 8 7 24 97 147 144 197 l30
32 -23 19 c-28 23 -43 24 -56 2 -9 -17 -10 -17 -28 -1 -58 53 -166 63 -252 23
l-54 -25 7 77 c10 110 34 159 89 183 48 21 88 19 141 -7 24 -12 27 -19 22 -44
-5 -26 -3 -29 35 -39 23 -6 42 -10 44 -8 1 2 25 41 53 88 28 47 67 102 86 124
20 21 36 42 36 46 0 15 -54 34 -103 36 -29 1 -90 5 -137 8 -60 5 -96 2 -122
-7z m167 -13 c35 -9 79 -13 106 -11 71 8 81 -5 38 -50 -20 -21 -55 -69 -77
-108 -59 -100 -57 -98 -81 -90 -12 3 -19 11 -15 16 11 19 -5 54 -33 70 -45 26
-94 31 -150 14 -92 -27 -123 -87 -123 -237 l0 -87 48 29 c91 57 181 57 254 -1
44 -35 54 -36 69 -8 7 15 14 18 21 11 8 -8 2 -22 -19 -49 -16 -21 -35 -47 -43
-59 -43 -61 -93 -124 -98 -124 -4 0 -14 5 -22 10 -13 8 -12 11 5 24 17 12 18
16 5 31 -36 43 -135 58 -190 30 -38 -20 -49 -60 -52 -197 l-3 -107 90 0 c98 1
218 -25 304 -64 l49 -22 -53 -88 c-29 -48 -55 -92 -57 -98 -2 -6 -26 0 -58 14
-30 13 -84 32 -120 42 -120 35 -374 20 -525 -30 -21 -7 -12 1 116 116 65 57
148 109 175 109 7 0 15 15 18 33 3 17 10 58 15 89 6 32 17 160 26 285 22 317
46 392 149 461 45 30 121 60 156 61 9 1 43 -6 75 -15z"/>
<path d="M2657 1580 c-49 -31 -107 -109 -107 -144 0 -34 -12 -42 -73 -54 -32
-6 -72 -21 -89 -33 -33 -24 -68 -89 -68 -129 0 -42 36 -107 69 -124 42 -22 48
-20 56 13 8 37 27 53 57 49 20 -3 22 -8 20 -45 -6 -78 -41 -226 -65 -275 -24
-48 -24 -48 -3 -42 158 46 265 164 267 299 1 33 0 130 -1 215 -2 151 0 165 35
278 6 19 4 22 -22 22 -16 0 -50 -13 -76 -30z m58 -21 c-22 -42 -34 -175 -32
-359 2 -176 -4 -198 -73 -281 -37 -44 -106 -97 -115 -88 -2 2 8 37 21 77 13
41 27 113 30 162 6 82 5 89 -14 99 -34 18 -62 13 -94 -19 -16 -16 -33 -30 -37
-30 -15 0 -41 71 -41 111 0 85 50 130 148 133 l55 2 22 67 c22 70 49 107 100
138 42 26 48 24 30 -12z"/>
<path d="M2043 1588 c-28 -13 -33 -68 -36 -406 l-2 -254 -104 -34 c-137 -46
-230 -51 -284 -14 -57 39 -94 119 -107 231 -17 147 -1 258 57 393 18 43 32 80
31 82 -14 13 -71 -19 -124 -68 -109 -102 -179 -238 -203 -397 -35 -227 123
-444 360 -493 99 -20 263 32 408 129 121 82 171 162 171 276 0 37 -3 67 -7 67
-5 0 -26 -32 -47 -70 -22 -39 -41 -69 -42 -67 -2 2 -4 124 -4 273 0 148 -3
290 -7 317 -6 50 -16 56 -60 35z m38 -327 c0 -289 2 -323 16 -328 18 -7 83 59
83 84 0 7 5 13 10 13 25 0 -22 -113 -70 -172 -39 -47 -180 -141 -257 -172 -35
-14 -91 -26 -143 -30 -171 -13 -303 60 -379 209 -47 94 -57 162 -39 270 20
117 49 189 110 281 44 66 143 162 155 151 2 -2 -14 -40 -37 -83 -100 -198 -91
-451 22 -578 74 -85 134 -101 263 -71 83 20 201 72 212 94 4 9 8 154 8 323 0
296 1 308 20 322 11 8 21 13 23 12 1 -2 2 -148 3 -325z"/>
<path d="M1783 1554 c-37 -19 -89 -49 -115 -67 -40 -27 -48 -37 -48 -65 0 -18
5 -42 11 -54 11 -20 11 -20 35 3 l24 22 0 -39 c0 -51 -18 -318 -26 -400 l-7
-64 32 0 c55 0 127 45 165 103 59 88 69 152 61 372 -9 248 -12 252 -132 189z
m92 -207 l0 -222 -33 -70 c-39 -82 -72 -120 -119 -136 -19 -6 -36 -9 -38 -7
-2 1 1 23 5 48 13 64 25 470 15 470 -5 0 -21 -12 -36 -26 l-27 -25 -4 35 c-2
23 0 36 8 36 6 0 28 11 48 25 39 26 165 95 175 95 3 0 6 -100 6 -223z"/>
<path d="M3765 1576 c-67 -30 -135 -129 -135 -194 0 -27 -3 -30 -46 -36 -25
-3 -63 -15 -84 -27 -101 -57 -107 -214 -10 -264 39 -20 60 -13 60 19 0 29 38
60 62 51 11 -4 13 -20 11 -68 -5 -98 -24 -208 -43 -259 l-18 -47 51 20 c65 26
98 50 140 102 76 94 87 150 63 332 -9 65 -16 149 -16 185 1 59 5 85 26 173 5
22 3 27 -12 27 -11 -1 -32 -7 -49 -14z m30 -23 c-28 -68 -31 -152 -13 -356 15
-176 6 -228 -55 -306 -36 -47 -105 -107 -113 -99 -1 2 6 35 16 73 12 44 19
107 19 167 1 96 1 98 -24 104 -39 10 -74 -4 -94 -37 -17 -27 -20 -29 -34 -15
-8 9 -23 36 -33 61 -15 42 -16 51 -3 93 18 57 52 79 135 90 l59 7 6 46 c4 25
16 64 28 86 29 58 127 136 106 86z"/>
</g>
</svg>
